<svg viewBox="0 0 34 29" fill="none" xmlns="http://www.w3.org/2000/svg">
<path id="AVIAN LOGO 1 (Traced)" fill-rule="evenodd" clip-rule="evenodd" d="M16.3587 2.54454L14.4323 5.16848L14.2279 5.05853C13.8845 4.87385 13.2311 4.69827 12.7787 4.6692C10.6462 4.53197 8.82122 6.17846 8.80461 8.25458C8.80016 8.81026 8.86452 9.17383 9.04724 9.62543C9.2303 10.0779 9.46696 10.4469 9.79172 10.7864L10.0812 11.089L6.023 16.6099C3.791 19.6464 1.95756 22.1516 1.9487 22.1771C1.93829 22.207 2.78461 22.2235 4.32574 22.2235C5.64202 22.2235 8.782 22.2377 11.3035 22.255L15.8879 22.2865V20.1056V17.9247L15.9969 17.8987C16.8501 17.6943 19.4731 17.6926 20.5007 17.8957L20.6338 17.922V20.1142V22.3064L27.1738 22.3418C30.7708 22.3612 33.7218 22.3692 33.7317 22.3595C33.744 22.3474 20.2735 2.77808 18.3577 0.0249666C18.2877 -0.0757519 18.2168 0.0135547 16.3587 2.54454ZM14.9895 5.66203C15.6872 6.35461 16.0187 7.07934 16.0681 8.01999C16.104 8.70272 16.0045 9.17454 15.6941 9.79353C15.3122 10.5552 14.7808 11.082 14.0234 11.4499C13.4359 11.7352 13.0405 11.8236 12.3526 11.8234C11.6893 11.8233 11.2275 11.7142 10.6533 11.4221C10.0099 11.0948 9.82383 11.4727 12.2675 8.14453C13.4463 6.53895 14.4417 5.22507 14.4795 5.22469C14.5173 5.22431 14.7468 5.4211 14.9895 5.66203ZM18.5418 12.1469C18.5737 12.1782 18.5999 12.2954 18.5999 12.4074V12.611H18.3093H18.0187V12.4074C18.0187 12.1592 18.082 12.0901 18.3093 12.0901C18.4052 12.0901 18.5098 12.1157 18.5418 12.1469ZM18.6483 13.6578C18.6483 14.5497 18.6401 14.6542 18.5717 14.6285C18.5296 14.6127 18.3661 14.5998 18.2085 14.5998H17.9219V13.6607C17.9219 13.1441 17.9364 12.7073 17.9542 12.6899C17.9719 12.6726 18.1353 12.6584 18.3174 12.6584H18.6483V13.6578ZM19.4353 14.7711L19.6169 14.7996V15.043V15.2864H18.2851H16.9533V15.0387C16.9533 14.773 16.9387 14.7866 17.2923 14.7229C17.4495 14.6946 19.1987 14.7339 19.4353 14.7711ZM19.3922 15.3876L19.6169 15.4177V16.5723V17.7269L19.5079 17.7024C19.2084 17.635 18.1872 17.5947 17.7282 17.6321C17.4485 17.6549 17.1489 17.6745 17.0623 17.6756L16.9049 17.6777V16.5439V15.4102L17.1107 15.3921C17.4766 15.3599 19.1607 15.3565 19.3922 15.3876ZM1.02401 26.4977C0.533193 27.7019 0.102038 28.7576 0.0658138 28.8436L0 29L0.25323 28.9857L0.506509 28.9713L0.611501 28.7108C0.669276 28.5676 0.798095 28.2426 0.89776 27.9887L1.07893 27.527H2.15621H3.23349L3.51932 28.2603L3.80509 28.9937L4.06336 28.9943C4.20545 28.9946 4.31441 28.9767 4.3055 28.9545C4.29664 28.9323 3.87531 27.8776 3.36924 26.6107L2.4491 24.3072L2.18275 24.3078L1.9164 24.3083L1.02401 26.4977ZM8.08289 24.6715C8.15878 24.8748 8.55603 25.9307 8.96568 27.018L9.71046 28.9949H9.98292H10.2554L11.1173 26.7102C11.5914 25.4535 11.9898 24.3976 12.0027 24.3635C12.0205 24.3165 11.9653 24.3052 11.7719 24.3162L11.5177 24.3307L10.7608 26.3985C10.3445 27.5357 9.9958 28.4582 9.98592 28.4486C9.97604 28.4389 9.62726 27.5084 9.21088 26.3809L8.45385 24.3307L8.19936 24.3164L7.94487 24.3021L8.08289 24.6715ZM16.469 26.651V28.9949H16.7112H16.9533V26.651V24.307H16.7112H16.469V26.651ZM22.4292 26.4977C21.9384 27.7019 21.5072 28.7576 21.471 28.8436L21.4052 29L21.6584 28.9857L21.9117 28.9713L22.0167 28.7108C22.0745 28.5676 22.2033 28.2426 22.303 27.9887L22.4841 27.527H23.5614H24.6387L24.9245 28.2603L25.2103 28.9937L25.4686 28.9943C25.6107 28.9946 25.7196 28.9767 25.7107 28.9545C25.7018 28.9323 25.2805 27.8776 24.7745 26.6107L23.8543 24.3072L23.588 24.3078L23.3216 24.3083L22.4292 26.4977ZM30.2226 26.651V28.9949H30.44H30.6574L30.67 27.0224L30.6827 25.05L32.0629 27.0214L33.4431 28.9928L33.7215 28.9939L34 28.9949V26.651V24.307H33.7584H33.5168L33.5041 26.2744L33.4915 28.2418L32.1129 26.2744L30.7343 24.307H30.4784H30.2226V26.651ZM2.63885 26.0034C2.87232 26.6109 3.05358 27.1175 3.04167 27.1292C3.02976 27.1408 2.61604 27.1445 2.12231 27.1374L1.22465 27.1245L1.40625 26.6747C1.50616 26.4272 1.71406 25.9094 1.86826 25.5239C2.0225 25.1384 2.16348 24.8401 2.18154 24.861C2.1996 24.8819 2.40537 25.396 2.63885 26.0034ZM24.0441 26.0034C24.2775 26.6109 24.4588 27.1175 24.4469 27.1292C24.435 27.1408 24.0212 27.1445 23.5275 27.1374L22.6299 27.1245L22.8115 26.6747C22.9114 26.4272 23.1193 25.9094 23.2735 25.5239C23.4277 25.1384 23.5687 24.8401 23.5868 24.861C23.6048 24.8819 23.8106 25.396 24.0441 26.0034Z" fill="#EF6D58"/>
</svg>
