<svg viewBox="0 0 60 60" fill="none" xmlns="http://www.w3.org/2000/svg">
<path d="M41.9878 8.75053C41.7524 8.74685 41.5244 8.83089 41.3466 8.98491L33.9622 15.3766C33.2908 15.9585 33.702 17.0618 34.5903 17.0621H36.6029C36.6029 17.114 36.5841 17.1599 36.5841 17.2121V26.5241C36.0504 26.2107 35.4347 26.0299 34.7748 26.0299H31.4523C29.3687 26.0299 27.7231 27.8246 27.7231 29.944V34.1928C27.1873 33.8868 26.571 33.71 25.9137 33.71H22.5903C20.5272 33.71 18.8611 35.437 18.8611 37.5143V40.9164C18.3263 40.608 17.7106 40.4299 17.0527 40.4299H13.7293C11.6594 40.4299 10 42.179 10 44.27V50.0299C10 50.5599 10.4299 50.9898 10.9599 50.9898H46.4045C46.9345 50.9898 47.3644 50.5599 47.3644 50.0299V17.2116C47.3644 17.159 47.3473 17.1135 47.3456 17.0616H49.3582C50.2465 17.0612 50.6576 15.9577 49.9863 15.3761L42.6019 8.98438C42.4308 8.83605 42.2131 8.75335 41.9868 8.75L41.9878 8.75053ZM41.9751 10.9798L46.7835 15.1422H46.2685C45.6431 15.1422 45.1844 15.7309 45.3377 16.3375C45.4071 16.6121 45.4456 16.9057 45.4456 17.2121V49.0704H38.5047V17.2121C38.5047 16.9057 38.5442 16.6124 38.6135 16.3375C38.7668 15.7308 38.3081 15.1422 37.6827 15.1422H37.1671L41.9751 10.9798ZM31.4528 27.9504H34.7753C35.7596 27.9504 36.5846 28.7911 36.5846 29.9446V49.0709H29.6435V29.9446C29.6435 28.7911 30.4681 27.9504 31.4528 27.9504ZM22.5908 35.6305H25.9142C26.919 35.6305 27.7235 36.4408 27.7235 37.5149V49.0709H20.7814V37.5149C20.7814 36.4408 21.5856 35.6305 22.5907 35.6305H22.5908ZM13.7297 42.3504H17.0531C18.0512 42.3504 18.8615 43.1703 18.8615 44.2702V49.0702H11.9203V44.2702C11.9203 43.17 12.7313 42.3504 13.7297 42.3504Z" fill="currentColor"/>
</svg>
