<svg viewBox="0 0 67 67" fill="none" xmlns="http://www.w3.org/2000/svg">
<path d="M58.1675 54.2486C58.1383 54.2352 55.3178 53.0159 55.8371 50.8784C56.3863 48.6183 55.5245 44.9288 53.1705 42.911C51.8372 41.7687 49.5301 40.7234 45.9894 41.9628L41.7316 37.7028C41.7103 37.647 41.7002 37.5887 41.6703 37.5364C41.1768 36.6454 40.6642 35.7743 40.1505 34.9199L55.4772 19.5942C56.1917 18.8785 56.585 17.9282 56.585 16.9175C56.585 15.9058 56.1898 14.9565 55.4761 14.2432L51.695 10.4599C50.2645 9.03161 47.771 9.03161 46.3428 10.4599L42.1987 14.6051C42.1975 14.6051 42.1975 14.6051 42.1953 14.6063C42.1953 14.6074 42.1953 14.6085 42.1931 14.6085L32.4321 24.3704C27.7084 18.9514 22.6836 14.9426 17.0786 12.1506C13.2018 10.2243 11.7197 10.67 11.2632 10.9522C11.1256 11.0371 11.0108 11.1523 10.927 11.2883C10.6444 11.7464 10.1976 13.2303 12.1272 17.1052C14.7814 22.4383 19.0059 27.7199 24.349 32.453L10.9691 45.8329C10.882 45.9178 10.8206 46.0228 10.7702 46.1342C10.7578 46.16 10.7466 46.1855 10.7354 46.2124C10.7275 46.2359 10.713 46.2569 10.7062 46.2815L7.71927 56.9546C7.61982 57.311 7.71927 57.6938 7.98174 57.9551C8.17616 58.1507 8.4375 58.2565 8.70633 58.2565C8.79793 58.2565 8.89065 58.2441 8.98225 58.2183L19.6554 55.2302C19.6789 55.2224 19.6998 55.2078 19.7245 55.2022C19.7514 55.191 19.7757 55.1798 19.8038 55.1674C19.9145 55.1173 20.0169 55.0534 20.104 54.9685L34.8919 40.1797C35.7552 40.7114 36.4296 41.0965 37.3853 41.6282L41.9325 46.1776C41.7572 47.3792 41.7302 50.1082 44.0708 53.5042C46.0116 56.3259 49.2188 57.5522 52.4087 57.5522C54.4856 57.5522 56.554 57.0329 58.26 56.0926C58.604 55.9027 58.8104 55.5344 58.7895 55.1411C58.77 54.7481 58.5277 54.4023 58.1662 54.249L58.1675 54.2486ZM43.0485 44.391L39.4584 40.7988L40.6923 39.5649L44.2835 43.1583L43.0485 44.391ZM19.3793 52.7929L16.9876 50.4L46.7633 20.6243L49.1562 23.0183L19.3793 52.7929ZM13.1437 46.5573L42.9195 16.7815L45.3135 19.1756L15.5377 48.9504L13.1437 46.5573ZM47.7913 11.9097C48.4467 11.2554 49.5882 11.2554 50.2459 11.9097L54.027 15.693C54.3541 16.019 54.534 16.4546 54.534 16.9178C54.534 17.3811 54.3541 17.8178 54.0259 18.1449L50.6045 21.5675L47.4878 18.4497C47.4867 18.4497 47.4867 18.45 47.4867 18.4489L44.3689 15.3311L47.7913 11.9097ZM13.963 16.1921C13.0743 14.4087 12.8096 13.339 12.7415 12.7684C13.312 12.8365 14.3806 13.1001 16.1652 13.9876C21.5611 16.6733 26.4095 20.556 30.9789 25.8237L25.8009 31.0016C20.6073 26.4234 16.517 21.323 13.963 16.1927V16.1921ZM12.2099 48.5216L17.4159 53.7276L10.1846 55.751L12.2099 48.5216ZM38.6491 36.4214C38.9351 36.9014 39.2219 37.3695 39.5011 37.8597L37.8318 39.528C37.3158 39.2374 36.8713 38.9798 36.3845 38.6871L38.6491 36.4214ZM45.7578 52.3386C43.6438 49.2679 43.8494 47.0298 43.9766 46.3621L46.2981 44.0407C48.584 43.1419 50.4485 43.2791 51.8346 44.4695C53.6737 46.0451 54.1896 48.974 53.8434 50.3956C53.3544 52.4179 54.3841 53.9946 55.5843 55.0197C52.1831 56.113 47.9354 55.5009 45.7582 52.3386L45.7578 52.3386Z" fill="currentColor"/>
</svg>
