<svg width="621" height="286" viewBox="0 0 621 286" fill="none" xmlns="http://www.w3.org/2000/svg">
<path d="M8.51587 236.856C43.136 244.034 121.714 244.165 159.064 187.264C196.414 130.363 277.762 137.236 313.767 147.785C350.761 150.993 427.242 141.977 437.212 80.2476C447.183 18.5178 518.916 6.02181 553.536 7.49001" stroke="black" stroke-width="0.567729"/>
<circle cx="11.3545" cy="237.879" r="6.81275" fill="#EF6D58"/>
<circle cx="11.3546" cy="237.878" r="11.0707" stroke="#FF4F33" stroke-width="0.567729"/>
<path d="M6.0634 281.266V271.455H9.08827C9.18819 271.455 9.36305 271.458 9.61285 271.462C9.86265 271.467 10.1011 271.485 10.3282 271.517C11.0867 271.617 11.7203 271.894 12.2289 272.348C12.7422 272.797 13.1282 273.37 13.3871 274.065C13.646 274.759 13.7754 275.525 13.7754 276.36C13.7754 277.196 13.646 277.961 13.3871 278.656C13.1282 279.351 12.7422 279.926 12.2289 280.38C11.7203 280.83 11.0867 281.104 10.3282 281.204C10.1011 281.232 9.86038 281.25 9.60603 281.259C9.35623 281.263 9.18364 281.266 9.08827 281.266H6.0634ZM7.31014 280.107H9.08827C9.26085 280.107 9.45388 280.103 9.66735 280.094C9.88081 280.08 10.067 280.06 10.226 280.033C10.7619 279.933 11.1957 279.708 11.5272 279.358C11.8588 279.008 12.1018 278.572 12.2562 278.05C12.4106 277.528 12.4878 276.965 12.4878 276.36C12.4878 275.743 12.4083 275.173 12.2494 274.65C12.095 274.128 11.852 273.694 11.5204 273.349C11.1889 273.004 10.7574 272.784 10.226 272.688C10.067 272.657 9.87854 272.636 9.66054 272.627C9.44253 272.618 9.25177 272.613 9.08827 272.613H7.31014V280.107ZM18.5262 281.47C17.804 281.47 17.1727 281.311 16.6322 280.993C16.0963 280.671 15.6784 280.223 15.3787 279.651C15.0789 279.074 14.929 278.402 14.929 277.634C14.929 276.831 15.0766 276.136 15.3719 275.55C15.6671 274.959 16.0781 274.505 16.605 274.187C17.1364 273.865 17.7586 273.703 18.4717 273.703C19.212 273.703 19.841 273.874 20.3588 274.214C20.8811 274.555 21.2717 275.041 21.5306 275.672C21.794 276.304 21.9076 277.055 21.8712 277.927H20.6449V277.491C20.6313 276.588 20.4474 275.913 20.0931 275.468C19.7388 275.018 19.212 274.794 18.5125 274.794C17.7631 274.794 17.1931 275.034 16.8025 275.516C16.4119 275.997 16.2166 276.687 16.2166 277.587C16.2166 278.454 16.4119 279.126 16.8025 279.603C17.1931 280.08 17.7495 280.319 18.4717 280.319C18.9576 280.319 19.38 280.207 19.7388 279.985C20.0976 279.762 20.3792 279.442 20.5836 279.024L21.7486 279.426C21.4625 280.076 21.031 280.58 20.4542 280.939C19.8819 281.293 19.2392 281.47 18.5262 281.47ZM15.8079 277.927V276.953H21.2444V277.927H15.8079ZM26.1676 281.463C25.291 281.463 24.5712 281.272 24.008 280.891C23.4493 280.505 23.1064 279.967 22.9792 279.276L24.2192 279.079C24.3191 279.478 24.5485 279.796 24.9073 280.033C25.2661 280.264 25.7112 280.38 26.2426 280.38C26.7467 280.38 27.1418 280.276 27.428 280.067C27.7141 279.858 27.8572 279.574 27.8572 279.215C27.8572 279.006 27.8095 278.838 27.7141 278.711C27.6187 278.579 27.4212 278.457 27.1214 278.343C26.8262 278.229 26.3788 278.093 25.7793 277.934C25.1298 277.762 24.6188 277.582 24.2464 277.396C23.874 277.21 23.6083 276.994 23.4493 276.749C23.2904 276.504 23.2109 276.206 23.2109 275.856C23.2109 275.425 23.329 275.048 23.5651 274.725C23.8013 274.398 24.1306 274.146 24.553 273.969C24.9799 273.792 25.475 273.703 26.0382 273.703C26.5968 273.703 27.0964 273.792 27.537 273.969C27.9775 274.146 28.3318 274.398 28.5998 274.725C28.8723 275.048 29.0335 275.425 29.0835 275.856L27.8436 276.081C27.7845 275.686 27.5937 275.375 27.2713 275.148C26.9534 274.921 26.5423 274.8 26.0382 274.787C25.5613 274.769 25.173 274.853 24.8732 275.039C24.578 275.225 24.4304 275.477 24.4304 275.795C24.4304 275.972 24.4849 276.124 24.5939 276.251C24.7074 276.379 24.9141 276.499 25.2138 276.613C25.5181 276.726 25.9587 276.856 26.5355 277.001C27.185 277.164 27.6959 277.344 28.0684 277.539C28.4453 277.73 28.7133 277.957 28.8723 278.22C29.0312 278.479 29.1107 278.799 29.1107 279.181C29.1107 279.889 28.8496 280.448 28.3273 280.857C27.8049 281.261 27.0851 281.463 26.1676 281.463ZM33.7131 281.47C32.9682 281.47 32.3346 281.304 31.8123 280.973C31.2945 280.637 30.8994 280.176 30.6269 279.59C30.3544 279.004 30.2136 278.336 30.2045 277.587C30.2136 276.819 30.3566 276.145 30.6337 275.563C30.9153 274.977 31.3172 274.521 31.8395 274.194C32.3619 273.867 32.9909 273.703 33.7267 273.703C34.5033 273.703 35.171 273.894 35.7296 274.276C36.2928 274.657 36.6698 275.18 36.8605 275.843L35.6615 276.204C35.5071 275.777 35.255 275.445 34.9053 275.209C34.5601 274.973 34.1627 274.855 33.7131 274.855C33.2089 274.855 32.7933 274.973 32.4663 275.209C32.1393 275.441 31.8963 275.763 31.7374 276.177C31.5784 276.585 31.4966 277.055 31.4921 277.587C31.5012 278.404 31.6897 279.065 32.0576 279.569C32.43 280.069 32.9818 280.319 33.7131 280.319C34.1945 280.319 34.5942 280.21 34.9121 279.992C35.23 279.769 35.4707 279.449 35.6342 279.031L36.8605 279.351C36.6062 280.037 36.2088 280.562 35.6683 280.925C35.1278 281.288 34.4761 281.47 33.7131 281.47ZM38.251 281.266V273.908H39.3342V275.686L39.1571 275.454C39.2434 275.227 39.3546 275.018 39.4909 274.828C39.6317 274.637 39.7884 274.48 39.961 274.357C40.1517 274.203 40.3675 274.085 40.6082 274.003C40.8489 273.921 41.0942 273.874 41.344 273.86C41.5938 273.842 41.8277 273.858 42.0457 273.908V275.046C41.7913 274.977 41.512 274.959 41.2077 274.991C40.9034 275.023 40.6218 275.134 40.3629 275.325C40.1268 275.493 39.9428 275.697 39.8111 275.938C39.6839 276.179 39.5954 276.44 39.5454 276.722C39.4954 276.999 39.4705 277.282 39.4705 277.573V281.266H38.251ZM43.4702 272.607V271.353H44.6829V272.607H43.4702ZM43.4702 281.266V273.908H44.6829V281.266H43.4702ZM50.1061 281.47C49.4158 281.47 48.8344 281.3 48.3621 280.959C47.8897 280.614 47.5309 280.148 47.2856 279.562C47.0449 278.972 46.9246 278.311 46.9246 277.58C46.9246 276.84 47.0449 276.177 47.2856 275.591C47.5309 275.005 47.8897 274.544 48.3621 274.208C48.839 273.872 49.4226 273.703 50.1129 273.703C50.7942 273.703 51.3801 273.874 51.8706 274.214C52.3657 274.551 52.7449 275.012 53.0084 275.597C53.2718 276.183 53.4035 276.844 53.4035 277.58C53.4035 278.316 53.2718 278.977 53.0084 279.562C52.7449 280.148 52.3657 280.614 51.8706 280.959C51.3801 281.3 50.7919 281.47 50.1061 281.47ZM46.7202 284.536V273.908H47.8034V279.324H47.9397V284.536H46.7202ZM49.9562 280.36C50.4422 280.36 50.8442 280.237 51.1621 279.992C51.48 279.746 51.7185 279.415 51.8774 278.997C52.0364 278.575 52.1159 278.102 52.1159 277.58C52.1159 277.062 52.0364 276.594 51.8774 276.177C51.723 275.759 51.4823 275.427 51.1553 275.182C50.8328 274.937 50.4218 274.814 49.9222 274.814C49.4453 274.814 49.0501 274.932 48.7368 275.168C48.4234 275.4 48.1895 275.725 48.035 276.142C47.8806 276.556 47.8034 277.035 47.8034 277.58C47.8034 278.116 47.8784 278.595 48.0282 279.017C48.1827 279.435 48.4188 279.765 48.7368 280.005C49.0547 280.241 49.4612 280.36 49.9562 280.36ZM59.0051 281.266C58.5691 281.352 58.1376 281.386 57.7106 281.368C57.2883 281.354 56.9113 281.27 56.5797 281.116C56.2482 280.957 55.9961 280.712 55.8235 280.38C55.6782 280.089 55.5987 279.796 55.5851 279.501C55.576 279.201 55.5714 278.863 55.5714 278.486V271.864H56.7841V278.432C56.7841 278.731 56.7864 278.988 56.7909 279.201C56.8 279.415 56.8477 279.599 56.934 279.753C57.0975 280.044 57.3564 280.214 57.7106 280.264C58.0695 280.314 58.5009 280.3 59.0051 280.223V281.266ZM54.0795 274.909V273.908H59.0051V274.909H54.0795ZM60.6351 272.607V271.353H61.8478V272.607H60.6351ZM60.6351 281.266V273.908H61.8478V281.266H60.6351ZM67.0258 281.47C66.2946 281.47 65.6633 281.304 65.1319 280.973C64.605 280.641 64.1985 280.182 63.9124 279.597C63.6262 279.011 63.4832 278.338 63.4832 277.58C63.4832 276.808 63.6285 276.131 63.9192 275.55C64.2099 274.968 64.6209 274.516 65.1523 274.194C65.6837 273.867 66.3082 273.703 67.0258 273.703C67.7616 273.703 68.3952 273.869 68.9266 274.201C69.458 274.528 69.8644 274.984 70.146 275.57C70.4322 276.152 70.5752 276.821 70.5752 277.58C70.5752 278.347 70.4322 279.024 70.146 279.61C69.8599 280.191 69.4511 280.648 68.9197 280.979C68.3884 281.307 67.757 281.47 67.0258 281.47ZM67.0258 280.319C67.7888 280.319 68.3566 280.064 68.729 279.556C69.1014 279.047 69.2876 278.388 69.2876 277.58C69.2876 276.749 69.0991 276.088 68.7222 275.597C68.3452 275.102 67.7797 274.855 67.0258 274.855C66.5126 274.855 66.0902 274.971 65.7586 275.202C65.4271 275.434 65.1795 275.754 65.016 276.163C64.8525 276.572 64.7708 277.044 64.7708 277.58C64.7708 278.407 64.9615 279.07 65.3431 279.569C65.7246 280.069 66.2855 280.319 67.0258 280.319ZM77.3142 281.266V277.58C77.3142 277.23 77.2824 276.894 77.2188 276.572C77.1598 276.249 77.0531 275.961 76.8986 275.706C76.7488 275.448 76.5444 275.243 76.2855 275.093C76.0312 274.943 75.7087 274.868 75.3181 274.868C75.0138 274.868 74.7367 274.921 74.4869 275.025C74.2417 275.125 74.0305 275.279 73.8533 275.488C73.6762 275.697 73.5377 275.961 73.4378 276.279C73.3424 276.592 73.2947 276.962 73.2947 277.389L72.4976 277.144C72.4976 276.431 72.6248 275.82 72.8791 275.311C73.138 274.798 73.4991 274.405 73.9624 274.133C74.4302 273.856 74.9797 273.717 75.611 273.717C76.0879 273.717 76.4944 273.792 76.8305 273.942C77.1666 274.092 77.4459 274.292 77.6685 274.541C77.891 274.787 78.0659 275.064 78.1931 275.373C78.3202 275.677 78.4088 275.988 78.4588 276.306C78.5133 276.619 78.5405 276.917 78.5405 277.198V281.266H77.3142ZM72.0684 281.266V273.908H73.1584V275.877H73.2947V281.266H72.0684Z" fill="black"/>
<path d="M5.66599 266.75V261.027H7.40268C7.46361 261.027 7.56694 261.029 7.71266 261.031C7.86102 261.034 8.00277 261.045 8.13789 261.063C8.57239 261.124 8.93536 261.286 9.22679 261.548C9.51823 261.81 9.7368 262.144 9.88252 262.549C10.0282 262.955 10.1011 263.401 10.1011 263.889C10.1011 264.376 10.0282 264.823 9.88252 265.228C9.7368 265.633 9.51823 265.967 9.22679 266.229C8.93536 266.492 8.57239 266.653 8.13789 266.714C8.00542 266.73 7.86367 266.741 7.71266 266.746C7.56164 266.749 7.45831 266.75 7.40268 266.75H5.66599ZM6.27006 266.19H7.40268C7.5113 266.19 7.62788 266.187 7.7524 266.182C7.87957 266.174 7.9882 266.161 8.07827 266.142C8.4121 266.084 8.68101 265.949 8.88502 265.737C9.09167 265.525 9.24269 265.26 9.33807 264.942C9.43344 264.621 9.48113 264.27 9.48113 263.889C9.48113 263.504 9.43344 263.152 9.33807 262.832C9.24269 262.511 9.09167 262.246 8.88502 262.037C8.67836 261.827 8.40945 261.694 8.07827 261.635C7.9882 261.617 7.87825 261.605 7.74842 261.6C7.62125 261.592 7.506 261.588 7.40268 261.588H6.27006V266.19ZM12.2342 266.869C11.911 266.869 11.6394 266.811 11.4195 266.694C11.2023 266.578 11.0393 266.423 10.9307 266.229C10.8221 266.036 10.7677 265.825 10.7677 265.598C10.7677 265.364 10.8141 265.166 10.9068 265.001C11.0022 264.834 11.1307 264.698 11.2923 264.592C11.4566 264.486 11.646 264.405 11.8606 264.35C12.0779 264.297 12.3177 264.25 12.5799 264.211C12.8449 264.168 13.1032 264.132 13.3549 264.103C13.6092 264.071 13.8318 264.041 14.0225 264.012L13.8159 264.139C13.8238 263.715 13.7417 263.401 13.5695 263.197C13.3973 262.993 13.0979 262.891 12.6713 262.891C12.3773 262.891 12.1282 262.957 11.9242 263.09C11.7229 263.222 11.5811 263.432 11.499 263.718L10.9307 263.551C11.0287 263.167 11.2261 262.869 11.5228 262.657C11.8196 262.445 12.2051 262.339 12.6793 262.339C13.0714 262.339 13.4039 262.413 13.6768 262.561C13.9523 262.707 14.1471 262.919 14.261 263.197C14.314 263.322 14.3484 263.461 14.3643 263.614C14.3802 263.768 14.3882 263.924 14.3882 264.083V266.75H13.8676V265.673L14.0186 265.737C13.8728 266.105 13.6463 266.386 13.339 266.579C13.0317 266.773 12.6634 266.869 12.2342 266.869ZM12.3018 266.365C12.5746 266.365 12.8131 266.315 13.0171 266.217C13.2211 266.119 13.3854 265.986 13.5099 265.816C13.6344 265.644 13.7152 265.45 13.7523 265.236C13.7841 265.098 13.8013 264.947 13.804 264.783C13.8066 264.616 13.8079 264.491 13.8079 264.409L14.0305 264.525C13.8318 264.551 13.6159 264.577 13.3827 264.604C13.1522 264.63 12.9244 264.661 12.6992 264.695C12.4766 264.73 12.2753 264.771 12.0951 264.819C11.9732 264.853 11.8553 264.902 11.7414 264.966C11.6275 265.027 11.5334 265.109 11.4592 265.212C11.3877 265.315 11.3519 265.444 11.3519 265.598C11.3519 265.722 11.3824 265.843 11.4433 265.959C11.5069 266.076 11.6076 266.172 11.7454 266.249C11.8858 266.326 12.0713 266.365 12.3018 266.365ZM17.7595 266.75C17.5184 266.8 17.28 266.82 17.0442 266.81C16.811 266.799 16.6017 266.749 16.4163 266.659C16.2334 266.569 16.0944 266.428 15.999 266.237C15.9221 266.078 15.8798 265.918 15.8718 265.756C15.8665 265.592 15.8639 265.405 15.8639 265.196V261.266H16.4441V265.172C16.4441 265.352 16.4454 265.503 16.448 265.625C16.4533 265.745 16.4812 265.851 16.5315 265.943C16.6269 266.121 16.7779 266.227 16.9846 266.261C17.1939 266.296 17.4522 266.288 17.7595 266.237V266.75ZM14.9458 262.959V262.458H17.7595V262.959H14.9458ZM20.266 266.869C19.8474 266.869 19.4845 266.776 19.1771 266.591C18.8725 266.406 18.6353 266.145 18.4658 265.808C18.2962 265.472 18.2114 265.077 18.2114 264.624C18.2114 264.155 18.2949 263.75 18.4618 263.408C18.6287 263.066 18.8632 262.802 19.1652 262.617C19.4699 262.431 19.8289 262.339 20.2422 262.339C20.6661 262.339 21.0277 262.437 21.3271 262.633C21.6265 262.826 21.853 263.104 22.0067 263.467C22.1604 263.83 22.2306 264.264 22.2173 264.767H21.6212V264.56C21.6106 264.004 21.4901 263.584 21.2596 263.3C21.0317 263.017 20.6979 262.875 20.2581 262.875C19.7971 262.875 19.4434 263.025 19.197 263.324C18.9533 263.624 18.8314 264.05 18.8314 264.604C18.8314 265.144 18.9533 265.564 19.197 265.864C19.4434 266.161 19.7918 266.309 20.2422 266.309C20.5495 266.309 20.8171 266.239 21.045 266.098C21.2755 265.955 21.457 265.75 21.5894 265.482L22.1339 265.693C21.9643 266.066 21.7139 266.357 21.3828 266.563C21.0542 266.767 20.682 266.869 20.266 266.869ZM18.6247 264.767V264.278H21.9034V264.767H18.6247Z" fill="black"/>
<circle cx="159.532" cy="186.782" r="8.51594" fill="white"/>
<circle cx="320.767" cy="148.176" r="8.51594" fill="white"/>
<circle cx="320.767" cy="148.18" r="6.81275" fill="#EF6D58" fill-opacity="0.5"/>
<path opacity="0.5" d="M314.908 191.566V181.756H317.933C318.033 181.756 318.208 181.758 318.458 181.763C318.707 181.767 318.946 181.786 319.173 181.817C319.931 181.917 320.565 182.194 321.074 182.649C321.587 183.098 321.973 183.67 322.232 184.365C322.491 185.06 322.62 185.826 322.62 186.661C322.62 187.497 322.491 188.262 322.232 188.957C321.973 189.652 321.587 190.227 321.074 190.681C320.565 191.13 319.931 191.405 319.173 191.505C318.946 191.532 318.705 191.551 318.451 191.56C318.201 191.564 318.028 191.566 317.933 191.566H314.908ZM316.155 190.408H317.933C318.106 190.408 318.299 190.404 318.512 190.395C318.726 190.381 318.912 190.361 319.071 190.333C319.607 190.233 320.04 190.009 320.372 189.659C320.704 189.309 320.946 188.873 321.101 188.351C321.255 187.828 321.333 187.265 321.333 186.661C321.333 186.044 321.253 185.474 321.094 184.951C320.94 184.429 320.697 183.995 320.365 183.65C320.034 183.305 319.602 183.085 319.071 182.989C318.912 182.957 318.723 182.937 318.505 182.928C318.287 182.919 318.096 182.914 317.933 182.914H316.155V190.408ZM327.371 191.771C326.649 191.771 326.017 191.612 325.477 191.294C324.941 190.971 324.523 190.524 324.223 189.952C323.924 189.375 323.774 188.703 323.774 187.935C323.774 187.131 323.921 186.436 324.217 185.851C324.512 185.26 324.923 184.806 325.45 184.488C325.981 184.165 326.603 184.004 327.316 184.004C328.057 184.004 328.686 184.175 329.204 184.515C329.726 184.856 330.116 185.342 330.375 185.973C330.639 186.604 330.752 187.356 330.716 188.228H329.49V187.792C329.476 186.888 329.292 186.214 328.938 185.769C328.584 185.319 328.057 185.094 327.357 185.094C326.608 185.094 326.038 185.335 325.647 185.816C325.257 186.298 325.061 186.988 325.061 187.888C325.061 188.755 325.257 189.427 325.647 189.904C326.038 190.381 326.594 190.619 327.316 190.619C327.802 190.619 328.225 190.508 328.584 190.286C328.942 190.063 329.224 189.743 329.428 189.325L330.593 189.727C330.307 190.376 329.876 190.881 329.299 191.239C328.727 191.594 328.084 191.771 327.371 191.771ZM324.653 188.228V187.254H330.089V188.228H324.653ZM335.012 191.764C334.136 191.764 333.416 191.573 332.853 191.192C332.294 190.806 331.951 190.267 331.824 189.577L333.064 189.38C333.164 189.779 333.393 190.097 333.752 190.333C334.111 190.565 334.556 190.681 335.087 190.681C335.591 190.681 335.987 190.576 336.273 190.367C336.559 190.158 336.702 189.875 336.702 189.516C336.702 189.307 336.654 189.139 336.559 189.012C336.463 188.88 336.266 188.757 335.966 188.644C335.671 188.53 335.224 188.394 334.624 188.235C333.975 188.062 333.464 187.883 333.091 187.697C332.719 187.511 332.453 187.295 332.294 187.05C332.135 186.804 332.056 186.507 332.056 186.157C332.056 185.726 332.174 185.349 332.41 185.026C332.646 184.699 332.975 184.447 333.398 184.27C333.825 184.093 334.32 184.004 334.883 184.004C335.442 184.004 335.941 184.093 336.382 184.27C336.822 184.447 337.177 184.699 337.444 185.026C337.717 185.349 337.878 185.726 337.928 186.157L336.688 186.382C336.629 185.987 336.438 185.676 336.116 185.449C335.798 185.221 335.387 185.101 334.883 185.087C334.406 185.069 334.018 185.153 333.718 185.34C333.423 185.526 333.275 185.778 333.275 186.096C333.275 186.273 333.33 186.425 333.439 186.552C333.552 186.679 333.759 186.8 334.059 186.913C334.363 187.027 334.803 187.156 335.38 187.302C336.03 187.465 336.541 187.645 336.913 187.84C337.29 188.031 337.558 188.258 337.717 188.521C337.876 188.78 337.955 189.1 337.955 189.482C337.955 190.19 337.694 190.749 337.172 191.158C336.65 191.562 335.93 191.764 335.012 191.764ZM342.558 191.771C341.813 191.771 341.179 191.605 340.657 191.273C340.139 190.937 339.744 190.476 339.472 189.89C339.199 189.305 339.058 188.637 339.049 187.888C339.058 187.12 339.201 186.445 339.478 185.864C339.76 185.278 340.162 184.822 340.684 184.495C341.207 184.168 341.836 184.004 342.571 184.004C343.348 184.004 344.016 184.195 344.574 184.577C345.138 184.958 345.515 185.48 345.705 186.143L344.506 186.505C344.352 186.078 344.1 185.746 343.75 185.51C343.405 185.274 343.007 185.156 342.558 185.156C342.054 185.156 341.638 185.274 341.311 185.51C340.984 185.742 340.741 186.064 340.582 186.477C340.423 186.886 340.341 187.356 340.337 187.888C340.346 188.705 340.534 189.366 340.902 189.87C341.275 190.37 341.827 190.619 342.558 190.619C343.039 190.619 343.439 190.51 343.757 190.292C344.075 190.07 344.315 189.75 344.479 189.332L345.705 189.652C345.451 190.338 345.054 190.862 344.513 191.226C343.973 191.589 343.321 191.771 342.558 191.771ZM347.096 191.566V184.209H348.179V185.987L348.002 185.755C348.088 185.528 348.199 185.319 348.336 185.128C348.476 184.938 348.633 184.781 348.806 184.658C348.996 184.504 349.212 184.386 349.453 184.304C349.694 184.222 349.939 184.175 350.189 184.161C350.439 184.143 350.672 184.159 350.89 184.209V185.346C350.636 185.278 350.357 185.26 350.052 185.292C349.748 185.324 349.467 185.435 349.208 185.626C348.971 185.794 348.788 185.998 348.656 186.239C348.529 186.48 348.44 186.741 348.39 187.022C348.34 187.299 348.315 187.583 348.315 187.874V191.566H347.096ZM352.315 182.907V181.654H353.528V182.907H352.315ZM352.315 191.566V184.209H353.528V191.566H352.315ZM358.951 191.771C358.26 191.771 357.679 191.6 357.207 191.26C356.734 190.915 356.376 190.449 356.13 189.863C355.89 189.273 355.769 188.612 355.769 187.881C355.769 187.14 355.89 186.477 356.13 185.891C356.376 185.305 356.734 184.844 357.207 184.508C357.684 184.172 358.267 184.004 358.958 184.004C359.639 184.004 360.225 184.175 360.715 184.515C361.21 184.851 361.59 185.312 361.853 185.898C362.117 186.484 362.248 187.145 362.248 187.881C362.248 188.616 362.117 189.277 361.853 189.863C361.59 190.449 361.21 190.915 360.715 191.26C360.225 191.6 359.637 191.771 358.951 191.771ZM355.565 194.837V184.209H356.648V189.625H356.784V194.837H355.565ZM358.801 190.66C359.287 190.66 359.689 190.538 360.007 190.292C360.325 190.047 360.563 189.716 360.722 189.298C360.881 188.875 360.961 188.403 360.961 187.881C360.961 187.363 360.881 186.895 360.722 186.477C360.568 186.059 360.327 185.728 360 185.483C359.678 185.237 359.267 185.115 358.767 185.115C358.29 185.115 357.895 185.233 357.581 185.469C357.268 185.701 357.034 186.025 356.88 186.443C356.725 186.857 356.648 187.336 356.648 187.881C356.648 188.417 356.723 188.896 356.873 189.318C357.027 189.736 357.264 190.065 357.581 190.306C357.899 190.542 358.306 190.66 358.801 190.66ZM367.85 191.566C367.414 191.653 366.982 191.687 366.555 191.669C366.133 191.655 365.756 191.571 365.424 191.417C365.093 191.258 364.841 191.012 364.668 190.681C364.523 190.39 364.443 190.097 364.43 189.802C364.421 189.502 364.416 189.164 364.416 188.787V182.165H365.629V188.732C365.629 189.032 365.631 189.289 365.636 189.502C365.645 189.716 365.692 189.9 365.779 190.054C365.942 190.345 366.201 190.515 366.555 190.565C366.914 190.615 367.346 190.601 367.85 190.524V191.566ZM362.924 185.21V184.209H367.85V185.21H362.924ZM369.48 182.907V181.654H370.693V182.907H369.48ZM369.48 191.566V184.209H370.693V191.566H369.48ZM375.871 191.771C375.139 191.771 374.508 191.605 373.977 191.273C373.45 190.942 373.043 190.483 372.757 189.897C372.471 189.311 372.328 188.639 372.328 187.881C372.328 187.109 372.473 186.432 372.764 185.851C373.055 185.269 373.466 184.817 373.997 184.495C374.528 184.168 375.153 184.004 375.871 184.004C376.606 184.004 377.24 184.17 377.771 184.502C378.303 184.829 378.709 185.285 378.991 185.871C379.277 186.452 379.42 187.122 379.42 187.881C379.42 188.648 379.277 189.325 378.991 189.911C378.705 190.492 378.296 190.949 377.764 191.28C377.233 191.607 376.602 191.771 375.871 191.771ZM375.871 190.619C376.634 190.619 377.201 190.365 377.574 189.856C377.946 189.348 378.132 188.689 378.132 187.881C378.132 187.05 377.944 186.389 377.567 185.898C377.19 185.403 376.624 185.156 375.871 185.156C375.357 185.156 374.935 185.271 374.603 185.503C374.272 185.735 374.024 186.055 373.861 186.464C373.697 186.872 373.616 187.345 373.616 187.881C373.616 188.707 373.806 189.37 374.188 189.87C374.569 190.37 375.13 190.619 375.871 190.619ZM386.159 191.566V187.881C386.159 187.531 386.127 187.195 386.064 186.872C386.005 186.55 385.898 186.262 385.743 186.007C385.593 185.748 385.389 185.544 385.13 185.394C384.876 185.244 384.553 185.169 384.163 185.169C383.859 185.169 383.581 185.221 383.332 185.326C383.086 185.426 382.875 185.58 382.698 185.789C382.521 185.998 382.382 186.262 382.282 186.579C382.187 186.893 382.139 187.263 382.139 187.69L381.342 187.445C381.342 186.732 381.47 186.121 381.724 185.612C381.983 185.099 382.344 184.706 382.807 184.433C383.275 184.156 383.824 184.018 384.456 184.018C384.933 184.018 385.339 184.093 385.675 184.243C386.011 184.393 386.291 184.592 386.513 184.842C386.736 185.087 386.911 185.365 387.038 185.673C387.165 185.978 387.254 186.289 387.303 186.607C387.358 186.92 387.385 187.218 387.385 187.499V191.566H386.159ZM380.913 191.566V184.209H382.003V186.178H382.139V191.566H380.913Z" fill="black"/>
<path opacity="0.5" d="M314.511 177.051V171.328H316.247C316.308 171.328 316.412 171.329 316.557 171.332C316.706 171.335 316.847 171.345 316.983 171.364C317.417 171.425 317.78 171.586 318.072 171.849C318.363 172.111 318.582 172.445 318.727 172.85C318.873 173.256 318.946 173.702 318.946 174.189C318.946 174.677 318.873 175.123 318.727 175.529C318.582 175.934 318.363 176.268 318.072 176.53C317.78 176.792 317.417 176.954 316.983 177.015C316.85 177.031 316.708 177.042 316.557 177.047C316.406 177.049 316.303 177.051 316.247 177.051H314.511ZM315.115 176.49H316.247C316.356 176.49 316.473 176.488 316.597 176.482C316.724 176.475 316.833 176.461 316.923 176.443C317.257 176.384 317.526 176.249 317.73 176.037C317.936 175.825 318.087 175.56 318.183 175.243C318.278 174.922 318.326 174.571 318.326 174.189C318.326 173.805 318.278 173.453 318.183 173.132C318.087 172.812 317.936 172.547 317.73 172.337C317.523 172.128 317.254 171.994 316.923 171.936C316.833 171.918 316.723 171.906 316.593 171.9C316.466 171.892 316.351 171.888 316.247 171.888H315.115V176.49ZM321.079 177.17C320.756 177.17 320.484 177.112 320.264 176.995C320.047 176.879 319.884 176.724 319.775 176.53C319.667 176.337 319.612 176.126 319.612 175.898C319.612 175.665 319.659 175.466 319.752 175.302C319.847 175.135 319.975 174.999 320.137 174.893C320.301 174.787 320.491 174.706 320.705 174.65C320.923 174.597 321.162 174.551 321.425 174.511C321.69 174.469 321.948 174.433 322.2 174.404C322.454 174.372 322.677 174.342 322.867 174.313L322.661 174.44C322.669 174.016 322.586 173.702 322.414 173.498C322.242 173.294 321.943 173.192 321.516 173.192C321.222 173.192 320.973 173.258 320.769 173.391C320.568 173.523 320.426 173.732 320.344 174.019L319.775 173.852C319.873 173.467 320.071 173.169 320.368 172.957C320.664 172.746 321.05 172.64 321.524 172.64C321.916 172.64 322.249 172.714 322.522 172.862C322.797 173.008 322.992 173.22 323.106 173.498C323.159 173.622 323.193 173.762 323.209 173.915C323.225 174.069 323.233 174.225 323.233 174.384V177.051H322.712V175.974L322.863 176.037C322.718 176.406 322.491 176.686 322.184 176.88C321.876 177.073 321.508 177.17 321.079 177.17ZM321.146 176.665C321.419 176.665 321.658 176.616 321.862 176.518C322.066 176.42 322.23 176.286 322.355 176.117C322.479 175.945 322.56 175.751 322.597 175.537C322.629 175.399 322.646 175.248 322.649 175.084C322.651 174.917 322.653 174.792 322.653 174.71L322.875 174.825C322.677 174.852 322.461 174.878 322.227 174.905C321.997 174.931 321.769 174.962 321.544 174.996C321.321 175.031 321.12 175.072 320.94 175.119C320.818 175.154 320.7 175.203 320.586 175.266C320.472 175.327 320.378 175.409 320.304 175.513C320.232 175.616 320.197 175.745 320.197 175.898C320.197 176.023 320.227 176.143 320.288 176.26C320.352 176.377 320.452 176.473 320.59 176.55C320.731 176.627 320.916 176.665 321.146 176.665ZM326.604 177.051C326.363 177.101 326.125 177.121 325.889 177.11C325.656 177.1 325.446 177.049 325.261 176.959C325.078 176.869 324.939 176.729 324.844 176.538C324.767 176.379 324.724 176.219 324.717 176.057C324.711 175.893 324.709 175.706 324.709 175.497V171.567H325.289V175.473C325.289 175.653 325.29 175.804 325.293 175.926C325.298 176.045 325.326 176.151 325.376 176.244C325.472 176.422 325.623 176.528 325.829 176.562C326.039 176.596 326.297 176.588 326.604 176.538V177.051ZM323.791 173.259V172.759H326.604V173.259H323.791ZM329.111 177.17C328.692 177.17 328.329 177.077 328.022 176.892C327.717 176.706 327.48 176.445 327.311 176.109C327.141 175.772 327.056 175.378 327.056 174.925C327.056 174.456 327.14 174.05 327.307 173.709C327.473 173.367 327.708 173.103 328.01 172.918C328.315 172.732 328.674 172.64 329.087 172.64C329.511 172.64 329.872 172.738 330.172 172.934C330.471 173.127 330.698 173.405 330.851 173.768C331.005 174.131 331.075 174.564 331.062 175.068H330.466V174.861C330.455 174.305 330.335 173.885 330.104 173.601C329.876 173.318 329.543 173.176 329.103 173.176C328.642 173.176 328.288 173.326 328.042 173.625C327.798 173.924 327.676 174.351 327.676 174.905C327.676 175.445 327.798 175.865 328.042 176.165C328.288 176.461 328.637 176.61 329.087 176.61C329.394 176.61 329.662 176.539 329.89 176.399C330.12 176.256 330.302 176.051 330.434 175.783L330.979 175.994C330.809 176.367 330.559 176.657 330.227 176.864C329.899 177.068 329.527 177.17 329.111 177.17ZM327.469 175.068V174.579H330.748V175.068H327.469Z" fill="black"/>
<circle cx="438.287" cy="80.0511" r="8.51594" fill="white"/>
<circle cx="552.4" cy="8.51594" r="8.51594" fill="white"/>
<circle cx="438.287" cy="80.051" r="6.81275" fill="#EF6D58" fill-opacity="0.5"/>
<path opacity="0.5" d="M359.191 60.418V50.6076H362.216C362.316 50.6076 362.49 50.6099 362.74 50.6144C362.99 50.619 363.229 50.6371 363.456 50.6689C364.214 50.7688 364.848 51.0459 365.356 51.5001C365.87 51.9497 366.256 52.522 366.515 53.2169C366.773 53.9118 366.903 54.6771 366.903 55.5128C366.903 56.3485 366.773 57.1138 366.515 57.8087C366.256 58.5036 365.87 59.0781 365.356 59.5323C364.848 59.982 364.214 60.2567 363.456 60.3567C363.229 60.3839 362.988 60.4021 362.733 60.4112C362.484 60.4157 362.311 60.418 362.216 60.418H359.191ZM360.438 59.2598H362.216C362.388 59.2598 362.581 59.2553 362.795 59.2462C363.008 59.2326 363.194 59.2121 363.353 59.1849C363.889 59.0849 364.323 58.8601 364.655 58.5104C364.986 58.1607 365.229 57.7247 365.384 57.2024C365.538 56.68 365.615 56.1169 365.615 55.5128C365.615 54.8951 365.536 54.3251 365.377 53.8028C365.222 53.2805 364.979 52.8467 364.648 52.5016C364.316 52.1564 363.885 51.9361 363.353 51.8407C363.194 51.8089 363.006 51.7885 362.788 51.7794C362.57 51.7703 362.379 51.7658 362.216 51.7658H360.438V59.2598ZM371.654 60.6224C370.931 60.6224 370.3 60.4634 369.76 60.1455C369.224 59.823 368.806 59.3756 368.506 58.8033C368.206 58.2265 368.056 57.5543 368.056 56.7868C368.056 55.9829 368.204 55.288 368.499 54.7021C368.795 54.1116 369.206 53.6575 369.732 53.3395C370.264 53.0171 370.886 52.8558 371.599 52.8558C372.339 52.8558 372.968 53.0261 373.486 53.3668C374.009 53.7074 374.399 54.1934 374.658 54.8247C374.921 55.456 375.035 56.2077 374.999 57.0797H373.772V56.6437C373.759 55.7399 373.575 55.0654 373.221 54.6203C372.866 54.1707 372.339 53.9459 371.64 53.9459C370.891 53.9459 370.321 54.1866 369.93 54.668C369.539 55.1494 369.344 55.8398 369.344 56.7391C369.344 57.6066 369.539 58.2788 369.93 58.7557C370.321 59.2326 370.877 59.471 371.599 59.471C372.085 59.471 372.507 59.3597 372.866 59.1372C373.225 58.9146 373.507 58.5944 373.711 58.1766L374.876 58.5785C374.59 59.228 374.158 59.7322 373.582 60.091C373.009 60.4452 372.367 60.6224 371.654 60.6224ZM368.935 57.0797V56.1055H374.372V57.0797H368.935ZM379.295 60.6155C378.418 60.6155 377.699 60.4248 377.135 60.0433C376.577 59.6572 376.234 59.119 376.107 58.4286L377.347 58.2311C377.447 58.6308 377.676 58.9487 378.035 59.1849C378.394 59.4165 378.839 59.5323 379.37 59.5323C379.874 59.5323 380.269 59.4278 380.555 59.2189C380.842 59.01 380.985 58.7261 380.985 58.3673C380.985 58.1584 380.937 57.9904 380.842 57.8632C380.746 57.7315 380.549 57.6088 380.249 57.4953C379.954 57.3818 379.506 57.2455 378.907 57.0865C378.257 56.9139 377.746 56.7345 377.374 56.5483C377.001 56.3621 376.736 56.1464 376.577 55.9011C376.418 55.6559 376.338 55.3584 376.338 55.0086C376.338 54.5772 376.456 54.2002 376.693 53.8777C376.929 53.5507 377.258 53.2986 377.68 53.1215C378.107 52.9444 378.602 52.8558 379.166 52.8558C379.724 52.8558 380.224 52.9444 380.664 53.1215C381.105 53.2986 381.459 53.5507 381.727 53.8777C382 54.2002 382.161 54.5772 382.211 55.0086L380.971 55.2335C380.912 54.8383 380.721 54.5272 380.399 54.3001C380.081 54.073 379.67 53.9527 379.166 53.939C378.689 53.9209 378.3 54.0049 378.001 54.1911C377.705 54.3773 377.558 54.6294 377.558 54.9473C377.558 55.1245 377.612 55.2766 377.721 55.4038C377.835 55.531 378.042 55.6513 378.341 55.7649C378.646 55.8784 379.086 56.0078 379.663 56.1532C380.312 56.3167 380.823 56.4961 381.196 56.6914C381.573 56.8822 381.841 57.1092 382 57.3727C382.159 57.6316 382.238 57.9518 382.238 58.3333C382.238 59.0418 381.977 59.6004 381.455 60.0092C380.932 60.4134 380.213 60.6155 379.295 60.6155ZM386.84 60.6224C386.096 60.6224 385.462 60.4566 384.94 60.125C384.422 59.7889 384.027 59.3279 383.754 58.742C383.482 58.1561 383.341 57.4885 383.332 56.7391C383.341 55.9715 383.484 55.2971 383.761 54.7157C384.043 54.1298 384.445 53.6733 384.967 53.3463C385.489 53.0193 386.118 52.8558 386.854 52.8558C387.631 52.8558 388.298 53.0466 388.857 53.4281C389.42 53.8096 389.797 54.3319 389.988 54.995L388.789 55.3561C388.635 54.9292 388.382 54.5976 388.033 54.3614C387.688 54.1253 387.29 54.0072 386.84 54.0072C386.336 54.0072 385.921 54.1253 385.594 54.3614C385.267 54.5931 385.024 54.9155 384.865 55.3288C384.706 55.7376 384.624 56.2077 384.62 56.7391C384.629 57.5566 384.817 58.2175 385.185 58.7216C385.557 59.2212 386.109 59.471 386.84 59.471C387.322 59.471 387.722 59.362 388.04 59.144C388.357 58.9214 388.598 58.6012 388.762 58.1834L389.988 58.5036C389.734 59.1894 389.336 59.714 388.796 60.0773C388.255 60.4407 387.604 60.6224 386.84 60.6224ZM391.378 60.418V53.0602H392.462V54.8383L392.285 54.6067C392.371 54.3796 392.482 54.1707 392.618 53.9799C392.759 53.7892 392.916 53.6325 393.088 53.5098C393.279 53.3554 393.495 53.2373 393.736 53.1556C393.976 53.0738 394.222 53.0261 394.471 53.0125C394.721 52.9943 394.955 53.0102 395.173 53.0602V54.1979C394.919 54.1298 394.639 54.1116 394.335 54.1434C394.031 54.1752 393.749 54.2865 393.49 54.4773C393.254 54.6453 393.07 54.8497 392.939 55.0904C392.811 55.3311 392.723 55.5923 392.673 55.8739C392.623 56.1509 392.598 56.4348 392.598 56.7255V60.418H391.378ZM396.598 51.759V50.5054H397.81V51.759H396.598ZM396.598 60.418V53.0602H397.81V60.418H396.598ZM403.234 60.6224C402.543 60.6224 401.962 60.452 401.49 60.1114C401.017 59.7662 400.658 59.3007 400.413 58.7148C400.172 58.1243 400.052 57.4635 400.052 56.7323C400.052 55.992 400.172 55.3288 400.413 54.7429C400.658 54.1571 401.017 53.6961 401.49 53.36C401.966 53.0239 402.55 52.8558 403.24 52.8558C403.922 52.8558 404.508 53.0261 404.998 53.3668C405.493 53.7029 405.872 54.1639 406.136 54.7498C406.399 55.3357 406.531 55.9965 406.531 56.7323C406.531 57.468 406.399 58.1289 406.136 58.7148C405.872 59.3007 405.493 59.7662 404.998 60.1114C404.508 60.452 403.919 60.6224 403.234 60.6224ZM399.848 63.6881V53.0602H400.931V58.4763H401.067V63.6881H399.848ZM403.084 59.5119C403.57 59.5119 403.972 59.3892 404.29 59.144C404.607 58.8987 404.846 58.5672 405.005 58.1493C405.164 57.7269 405.243 57.2546 405.243 56.7323C405.243 56.2145 405.164 55.7467 405.005 55.3288C404.85 54.911 404.61 54.5794 404.283 54.3342C403.96 54.0889 403.549 53.9663 403.05 53.9663C402.573 53.9663 402.178 54.0844 401.864 54.3206C401.551 54.5522 401.317 54.8769 401.162 55.2948C401.008 55.7081 400.931 56.1873 400.931 56.7323C400.931 57.2682 401.006 57.7474 401.156 58.1698C401.31 58.5876 401.546 58.9169 401.864 59.1576C402.182 59.3938 402.589 59.5119 403.084 59.5119ZM412.133 60.418C411.696 60.5043 411.265 60.5383 410.838 60.5202C410.416 60.5065 410.039 60.4225 409.707 60.2681C409.376 60.1091 409.124 59.8639 408.951 59.5323C408.806 59.2416 408.726 58.9487 408.713 58.6535C408.703 58.3537 408.699 58.0153 408.699 57.6384V51.0164H409.912V57.5839C409.912 57.8836 409.914 58.1402 409.918 58.3537C409.927 58.5672 409.975 58.7511 410.061 58.9055C410.225 59.1962 410.484 59.3665 410.838 59.4165C411.197 59.4665 411.628 59.4528 412.133 59.3756V60.418ZM407.207 54.0617V53.0602H412.133V54.0617H407.207ZM413.763 51.759V50.5054H414.975V51.759H413.763ZM413.763 60.418V53.0602H414.975V60.418H413.763ZM420.153 60.6224C419.422 60.6224 418.791 60.4566 418.259 60.125C417.732 59.7935 417.326 59.3347 417.04 58.7488C416.754 58.1629 416.611 57.4908 416.611 56.7323C416.611 55.9602 416.756 55.2834 417.047 54.7021C417.337 54.1207 417.748 53.6688 418.28 53.3463C418.811 53.0193 419.436 52.8558 420.153 52.8558C420.889 52.8558 421.523 53.0216 422.054 53.3531C422.585 53.6802 422.992 54.1366 423.273 54.7225C423.56 55.3039 423.703 55.9738 423.703 56.7323C423.703 57.4998 423.56 58.1766 423.273 58.7625C422.987 59.3438 422.579 59.8003 422.047 60.1318C421.516 60.4588 420.884 60.6224 420.153 60.6224ZM420.153 59.471C420.916 59.471 421.484 59.2167 421.856 58.708C422.229 58.1993 422.415 57.5407 422.415 56.7323C422.415 55.9011 422.227 55.2403 421.85 54.7498C421.473 54.2547 420.907 54.0072 420.153 54.0072C419.64 54.0072 419.218 54.123 418.886 54.3546C418.555 54.5863 418.307 54.9065 418.143 55.3152C417.98 55.724 417.898 56.1963 417.898 56.7323C417.898 57.5589 418.089 58.222 418.47 58.7216C418.852 59.2212 419.413 59.471 420.153 59.471ZM430.442 60.418V56.7323C430.442 56.3826 430.41 56.0465 430.346 55.724C430.287 55.4015 430.181 55.1131 430.026 54.8588C429.876 54.5999 429.672 54.3955 429.413 54.2456C429.159 54.0957 428.836 54.0208 428.446 54.0208C428.141 54.0208 427.864 54.073 427.614 54.1775C427.369 54.2774 427.158 54.4318 426.981 54.6408C426.804 54.8497 426.665 55.1131 426.565 55.431C426.47 55.7444 426.422 56.1146 426.422 56.5415L425.625 56.2963C425.625 55.5832 425.752 54.9723 426.007 54.4636C426.265 53.9504 426.627 53.5575 427.09 53.285C427.558 53.008 428.107 52.8694 428.738 52.8694C429.215 52.8694 429.622 52.9444 429.958 53.0943C430.294 53.2441 430.573 53.444 430.796 53.6938C431.018 53.939 431.193 54.2161 431.321 54.5249C431.448 54.8292 431.536 55.1404 431.586 55.4583C431.641 55.7717 431.668 56.0692 431.668 56.3508V60.418H430.442ZM425.196 60.418V53.0602H426.286V55.0291H426.422V60.418H425.196Z" fill="black"/>
<path opacity="0.5" d="M358.793 45.9023V40.1796H360.53C360.591 40.1796 360.694 40.181 360.84 40.1836C360.988 40.1863 361.13 40.1969 361.265 40.2154C361.7 40.2763 362.063 40.438 362.354 40.7002C362.646 40.9625 362.864 41.2964 363.01 41.7017C363.156 42.1071 363.229 42.5535 363.229 43.041C363.229 43.5285 363.156 43.9749 363.01 44.3803C362.864 44.7856 362.646 45.1194 362.354 45.3817C362.063 45.644 361.7 45.8056 361.265 45.8666C361.133 45.8825 360.991 45.8931 360.84 45.8984C360.689 45.901 360.586 45.9023 360.53 45.9023H358.793ZM359.397 45.342H360.53C360.639 45.342 360.755 45.3393 360.88 45.334C361.007 45.3261 361.116 45.3129 361.206 45.2943C361.54 45.236 361.808 45.1009 362.012 44.8889C362.219 44.677 362.37 44.4121 362.466 44.0941C362.561 43.7735 362.609 43.4225 362.609 43.041C362.609 42.6568 362.561 42.3045 362.466 41.9839C362.37 41.6633 362.219 41.3984 362.012 41.1891C361.806 40.9798 361.537 40.846 361.206 40.7877C361.116 40.7691 361.006 40.7572 360.876 40.7519C360.749 40.744 360.633 40.74 360.53 40.74H359.397V45.342ZM365.362 46.0216C365.038 46.0216 364.767 45.9633 364.547 45.8467C364.33 45.7301 364.167 45.5751 364.058 45.3817C363.95 45.1883 363.895 44.9777 363.895 44.7499C363.895 44.5167 363.942 44.318 364.034 44.1537C364.13 43.9868 364.258 43.8504 364.42 43.7444C364.584 43.6384 364.773 43.5576 364.988 43.502C365.205 43.449 365.445 43.4026 365.707 43.3629C365.972 43.3205 366.231 43.2847 366.482 43.2556C366.737 43.2238 366.959 43.1933 367.15 43.1642L366.943 43.2914C366.951 42.8675 366.869 42.5535 366.697 42.3495C366.525 42.1455 366.225 42.0435 365.799 42.0435C365.505 42.0435 365.256 42.1097 365.052 42.2422C364.85 42.3747 364.709 42.584 364.626 42.8701L364.058 42.7032C364.156 42.319 364.354 42.021 364.65 41.809C364.947 41.5971 365.332 41.4911 365.807 41.4911C366.199 41.4911 366.531 41.5653 366.804 41.7136C367.08 41.8594 367.275 42.0713 367.388 42.3495C367.441 42.474 367.476 42.6131 367.492 42.7668C367.508 42.9204 367.516 43.0768 367.516 43.2357V45.9023H366.995V44.8254L367.146 44.8889C367 45.2572 366.774 45.5381 366.466 45.7315C366.159 45.9249 365.791 46.0216 365.362 46.0216ZM365.429 45.5169C365.702 45.5169 365.941 45.4678 366.145 45.3698C366.349 45.2718 366.513 45.138 366.637 44.9684C366.762 44.7962 366.843 44.6028 366.88 44.3882C366.912 44.2504 366.929 44.0994 366.931 43.9352C366.934 43.7682 366.935 43.6437 366.935 43.5616L367.158 43.6768C366.959 43.7033 366.743 43.7298 366.51 43.7563C366.28 43.7828 366.052 43.8133 365.827 43.8477C365.604 43.8822 365.403 43.9232 365.223 43.9709C365.101 44.0054 364.983 44.0544 364.869 44.118C364.755 44.1789 364.661 44.261 364.587 44.3644C364.515 44.4677 364.479 44.5962 364.479 44.7499C364.479 44.8744 364.51 44.9949 364.571 45.1115C364.634 45.2281 364.735 45.3248 364.873 45.4016C365.013 45.4784 365.199 45.5169 365.429 45.5169ZM370.887 45.9023C370.646 45.9527 370.407 45.9726 370.172 45.962C369.938 45.9514 369.729 45.901 369.544 45.8109C369.361 45.7209 369.222 45.5804 369.126 45.3897C369.05 45.2307 369.007 45.0704 368.999 44.9088C368.994 44.7446 368.991 44.5578 368.991 44.3485V40.4181H369.572V44.3246C369.572 44.5048 369.573 44.6558 369.575 44.7777C369.581 44.8969 369.609 45.0029 369.659 45.0956C369.754 45.2731 369.905 45.3791 370.112 45.4135C370.321 45.448 370.58 45.44 370.887 45.3897V45.9023ZM368.073 42.111V41.6103H370.887V42.111H368.073ZM373.393 46.0216C372.975 46.0216 372.612 45.9288 372.305 45.7434C372 45.5579 371.763 45.297 371.593 44.9605C371.424 44.624 371.339 44.2292 371.339 43.7762C371.339 43.3073 371.422 42.9019 371.589 42.5601C371.756 42.2183 371.991 41.9547 372.293 41.7693C372.597 41.5838 372.956 41.4911 373.37 41.4911C373.794 41.4911 374.155 41.5891 374.455 41.7852C374.754 41.9786 374.98 42.2568 375.134 42.6197C375.288 42.9827 375.358 43.4159 375.345 43.9193H374.749V43.7126C374.738 43.1562 374.618 42.7363 374.387 42.4528C374.159 42.1693 373.825 42.0276 373.386 42.0276C372.925 42.0276 372.571 42.1773 372.324 42.4767C372.081 42.776 371.959 43.2026 371.959 43.7563C371.959 44.2968 372.081 44.7167 372.324 45.0161C372.571 45.3129 372.919 45.4612 373.37 45.4612C373.677 45.4612 373.945 45.391 374.172 45.2506C374.403 45.1075 374.584 44.9022 374.717 44.6346L375.261 44.8452C375.092 45.2188 374.841 45.5089 374.51 45.7156C374.182 45.9196 373.809 46.0216 373.393 46.0216ZM371.752 43.9193V43.4305H375.031V43.9193H371.752Z" fill="black"/>
<path opacity="0.5" d="M546.541 51.9023V42.092H549.566C549.666 42.092 549.841 42.0943 550.091 42.0988C550.341 42.1033 550.579 42.1215 550.806 42.1533C551.565 42.2532 552.198 42.5303 552.707 42.9845C553.22 43.4341 553.606 44.0064 553.865 44.7013C554.124 45.3962 554.253 46.1615 554.253 46.9972C554.253 47.8329 554.124 48.5982 553.865 49.2931C553.606 49.988 553.22 50.5625 552.707 51.0167C552.198 51.4663 551.565 51.7411 550.806 51.841C550.579 51.8683 550.338 51.8864 550.084 51.8955C549.834 51.9001 549.662 51.9023 549.566 51.9023H546.541ZM547.788 50.7442H549.566C549.739 50.7442 549.932 50.7396 550.145 50.7306C550.359 50.7169 550.545 50.6965 550.704 50.6692C551.24 50.5693 551.674 50.3445 552.005 49.9948C552.337 49.6451 552.58 49.209 552.734 48.6867C552.889 48.1644 552.966 47.6012 552.966 46.9972C552.966 46.3795 552.886 45.8095 552.727 45.2872C552.573 44.7649 552.33 44.3311 551.998 43.9859C551.667 43.6407 551.235 43.4205 550.704 43.3251C550.545 43.2933 550.357 43.2729 550.139 43.2638C549.921 43.2547 549.73 43.2502 549.566 43.2502H547.788V50.7442ZM559.004 52.1067C558.282 52.1067 557.651 51.9478 557.11 51.6298C556.574 51.3074 556.156 50.86 555.857 50.2877C555.557 49.7109 555.407 49.0387 555.407 48.2711C555.407 47.4672 555.555 46.7723 555.85 46.1864C556.145 45.596 556.556 45.1418 557.083 44.8239C557.614 44.5014 558.237 44.3402 558.95 44.3402C559.69 44.3402 560.319 44.5105 560.837 44.8511C561.359 45.1918 561.75 45.6778 562.009 46.3091C562.272 46.9404 562.386 47.6921 562.349 48.5641H561.123V48.1281C561.109 47.2243 560.925 46.5498 560.571 46.1047C560.217 45.6551 559.69 45.4302 558.991 45.4302C558.241 45.4302 557.671 45.6709 557.281 46.1524C556.89 46.6338 556.695 47.3242 556.695 48.2235C556.695 49.0909 556.89 49.7631 557.281 50.24C557.671 50.7169 558.228 50.9554 558.95 50.9554C559.436 50.9554 559.858 50.8441 560.217 50.6215C560.576 50.399 560.857 50.0788 561.062 49.6609L562.227 50.0629C561.94 50.7124 561.509 51.2165 560.932 51.5753C560.36 51.9296 559.717 52.1067 559.004 52.1067ZM556.286 48.5641V47.5899H561.722V48.5641H556.286ZM566.646 52.0999C565.769 52.0999 565.049 51.9092 564.486 51.5276C563.927 51.1416 563.584 50.6034 563.457 49.913L564.697 49.7155C564.797 50.1151 565.026 50.4331 565.385 50.6692C565.744 50.9009 566.189 51.0167 566.721 51.0167C567.225 51.0167 567.62 50.9122 567.906 50.7033C568.192 50.4944 568.335 50.2105 568.335 49.8517C568.335 49.6428 568.288 49.4747 568.192 49.3476C568.097 49.2158 567.899 49.0932 567.599 48.9797C567.304 48.8661 566.857 48.7299 566.257 48.5709C565.608 48.3983 565.097 48.2189 564.724 48.0327C564.352 47.8465 564.086 47.6307 563.927 47.3855C563.768 47.1402 563.689 46.8427 563.689 46.493C563.689 46.0615 563.807 45.6846 564.043 45.3621C564.279 45.0351 564.609 44.783 565.031 44.6059C565.458 44.4288 565.953 44.3402 566.516 44.3402C567.075 44.3402 567.574 44.4288 568.015 44.6059C568.456 44.783 568.81 45.0351 569.078 45.3621C569.35 45.6846 569.512 46.0615 569.561 46.493L568.322 46.7178C568.263 46.3227 568.072 46.0116 567.749 45.7845C567.431 45.5574 567.02 45.437 566.516 45.4234C566.039 45.4053 565.651 45.4893 565.351 45.6755C565.056 45.8617 564.908 46.1138 564.908 46.4317C564.908 46.6088 564.963 46.761 565.072 46.8882C565.185 47.0153 565.392 47.1357 565.692 47.2492C565.996 47.3628 566.437 47.4922 567.014 47.6376C567.663 47.8011 568.174 47.9805 568.546 48.1758C568.923 48.3665 569.191 48.5936 569.35 48.857C569.509 49.1159 569.589 49.4361 569.589 49.8176C569.589 50.5262 569.328 51.0848 568.805 51.4936C568.283 51.8978 567.563 52.0999 566.646 52.0999ZM574.191 52.1067C573.446 52.1067 572.813 51.9409 572.29 51.6094C571.773 51.2733 571.377 50.8123 571.105 50.2264C570.832 49.6405 570.692 48.9729 570.683 48.2235C570.692 47.4559 570.835 46.7814 571.112 46.2001C571.393 45.6142 571.795 45.1577 572.318 44.8307C572.84 44.5037 573.469 44.3402 574.205 44.3402C574.981 44.3402 575.649 44.5309 576.208 44.9125C576.771 45.294 577.148 45.8163 577.339 46.4794L576.14 46.8405C575.985 46.4135 575.733 46.082 575.383 45.8458C575.038 45.6096 574.641 45.4915 574.191 45.4915C573.687 45.4915 573.271 45.6096 572.944 45.8458C572.617 46.0774 572.374 46.3999 572.215 46.8132C572.056 47.222 571.975 47.6921 571.97 48.2235C571.979 49.041 572.168 49.7018 572.536 50.206C572.908 50.7056 573.46 50.9554 574.191 50.9554C574.673 50.9554 575.072 50.8464 575.39 50.6284C575.708 50.4058 575.949 50.0856 576.112 49.6678L577.339 49.988C577.084 50.6738 576.687 51.1984 576.146 51.5617C575.606 51.9251 574.954 52.1067 574.191 52.1067ZM578.729 51.9023V44.5446H579.812V46.3227L579.635 46.0911C579.721 45.864 579.833 45.6551 579.969 45.4643C580.11 45.2735 580.266 45.1168 580.439 44.9942C580.63 44.8398 580.846 44.7217 581.086 44.64C581.327 44.5582 581.572 44.5105 581.822 44.4969C582.072 44.4787 582.306 44.4946 582.524 44.5446V45.6823C582.269 45.6142 581.99 45.596 581.686 45.6278C581.381 45.6596 581.1 45.7709 580.841 45.9616C580.605 46.1297 580.421 46.3341 580.289 46.5748C580.162 46.8155 580.073 47.0766 580.023 47.3582C579.973 47.6353 579.948 47.9192 579.948 48.2098V51.9023H578.729ZM583.948 43.2433V41.9898H585.161V43.2433H583.948ZM583.948 51.9023V44.5446H585.161V51.9023H583.948ZM590.584 52.1067C589.894 52.1067 589.312 51.9364 588.84 51.5958C588.368 51.2506 588.009 50.7851 587.764 50.1992C587.523 49.6087 587.403 48.9479 587.403 48.2166C587.403 47.4763 587.523 46.8132 587.764 46.2273C588.009 45.6414 588.368 45.1804 588.84 44.8443C589.317 44.5082 589.901 44.3402 590.591 44.3402C591.272 44.3402 591.858 44.5105 592.349 44.8511C592.844 45.1872 593.223 45.6482 593.486 46.2341C593.75 46.82 593.882 47.4809 593.882 48.2166C593.882 48.9524 593.75 49.6133 593.486 50.1992C593.223 50.7851 592.844 51.2506 592.349 51.5958C591.858 51.9364 591.27 52.1067 590.584 52.1067ZM587.198 55.1725V44.5446H588.281V49.9607H588.418V55.1725H587.198ZM590.434 50.9962C590.92 50.9962 591.322 50.8736 591.64 50.6284C591.958 50.3831 592.197 50.0515 592.355 49.6337C592.514 49.2113 592.594 48.739 592.594 48.2166C592.594 47.6989 592.514 47.2311 592.355 46.8132C592.201 46.3954 591.96 46.0638 591.633 45.8186C591.311 45.5733 590.9 45.4507 590.4 45.4507C589.923 45.4507 589.528 45.5688 589.215 45.8049C588.901 46.0366 588.667 46.3613 588.513 46.7792C588.359 47.1925 588.281 47.6716 588.281 48.2166C588.281 48.7526 588.356 49.2317 588.506 49.6541C588.661 50.072 588.897 50.4013 589.215 50.642C589.533 50.8782 589.939 50.9962 590.434 50.9962ZM599.483 51.9023C599.047 51.9886 598.616 52.0227 598.189 52.0045C597.766 51.9909 597.389 51.9069 597.058 51.7525C596.726 51.5935 596.474 51.3482 596.302 51.0167C596.156 50.726 596.077 50.4331 596.063 50.1378C596.054 49.8381 596.049 49.4997 596.049 49.1227V42.5007H597.262V49.0682C597.262 49.368 597.264 49.6246 597.269 49.8381C597.278 50.0515 597.326 50.2355 597.412 50.3899C597.576 50.6806 597.834 50.8509 598.189 50.9009C598.547 50.9508 598.979 50.9372 599.483 50.86V51.9023ZM594.557 45.546V44.5446H599.483V45.546H594.557ZM601.113 43.2433V41.9898H602.326V43.2433H601.113ZM601.113 51.9023V44.5446H602.326V51.9023H601.113ZM607.504 52.1067C606.773 52.1067 606.141 51.9409 605.61 51.6094C605.083 51.2778 604.677 50.8191 604.39 50.2332C604.104 49.6473 603.961 48.9751 603.961 48.2166C603.961 47.4445 604.107 46.7678 604.397 46.1864C604.688 45.6051 605.099 45.1532 605.63 44.8307C606.162 44.5037 606.786 44.3402 607.504 44.3402C608.24 44.3402 608.873 44.506 609.405 44.8375C609.936 45.1645 610.342 45.621 610.624 46.2069C610.91 46.7882 611.053 47.4582 611.053 48.2166C611.053 48.9842 610.91 49.6609 610.624 50.2468C610.338 50.8282 609.929 51.2847 609.398 51.6162C608.866 51.9432 608.235 52.1067 607.504 52.1067ZM607.504 50.9554C608.267 50.9554 608.835 50.701 609.207 50.1923C609.579 49.6837 609.766 49.0251 609.766 48.2166C609.766 47.3855 609.577 46.7247 609.2 46.2341C608.823 45.7391 608.258 45.4915 607.504 45.4915C606.991 45.4915 606.568 45.6074 606.237 45.839C605.905 46.0706 605.658 46.3908 605.494 46.7996C605.331 47.2084 605.249 47.6807 605.249 48.2166C605.249 49.0433 605.44 49.7064 605.821 50.206C606.203 50.7056 606.764 50.9554 607.504 50.9554ZM617.792 51.9023V48.2166C617.792 47.8669 617.76 47.5308 617.697 47.2084C617.638 46.8859 617.531 46.5975 617.377 46.3431C617.227 46.0843 617.022 45.8799 616.764 45.73C616.509 45.5801 616.187 45.5052 615.796 45.5052C615.492 45.5052 615.215 45.5574 614.965 45.6619C614.72 45.7618 614.509 45.9162 614.331 46.1251C614.154 46.3341 614.016 46.5975 613.916 46.9154C613.82 47.2288 613.773 47.599 613.773 48.0259L612.976 47.7806C612.976 47.0676 613.103 46.4567 613.357 45.948C613.616 45.4348 613.977 45.0419 614.44 44.7694C614.908 44.4923 615.458 44.3538 616.089 44.3538C616.566 44.3538 616.972 44.4288 617.309 44.5786C617.645 44.7285 617.924 44.9284 618.147 45.1782C618.369 45.4234 618.544 45.7005 618.671 46.0093C618.798 46.3136 618.887 46.6247 618.937 46.9427C618.991 47.256 619.019 47.5535 619.019 47.8351V51.9023H617.792ZM612.546 51.9023V44.5446H613.636V46.5135H613.773V51.9023H612.546Z" fill="black"/>
<path opacity="0.5" d="M546.144 37.3867V31.664H547.881C547.942 31.664 548.045 31.6653 548.191 31.668C548.339 31.6706 548.481 31.6812 548.616 31.6998C549.05 31.7607 549.413 31.9223 549.705 32.1846C549.996 32.4469 550.215 32.7807 550.361 33.1861C550.506 33.5914 550.579 34.0379 550.579 34.5254C550.579 35.0129 550.506 35.4593 550.361 35.8646C550.215 36.27 549.996 36.6038 549.705 36.8661C549.413 37.1284 549.05 37.29 548.616 37.351C548.483 37.3668 548.342 37.3774 548.191 37.3827C548.04 37.3854 547.936 37.3867 547.881 37.3867H546.144ZM546.748 36.8264H547.881C547.989 36.8264 548.106 36.8237 548.23 36.8184C548.358 36.8105 548.466 36.7972 548.556 36.7787C548.89 36.7204 549.159 36.5853 549.363 36.3733C549.57 36.1614 549.721 35.8964 549.816 35.5785C549.911 35.2579 549.959 34.9069 549.959 34.5254C549.959 34.1412 549.911 33.7888 549.816 33.4683C549.721 33.1477 549.57 32.8827 549.363 32.6734C549.156 32.4641 548.887 32.3303 548.556 32.272C548.466 32.2535 548.356 32.2416 548.226 32.2363C548.099 32.2283 547.984 32.2244 547.881 32.2244H546.748V36.8264ZM552.712 37.5059C552.389 37.5059 552.117 37.4477 551.898 37.3311C551.68 37.2145 551.517 37.0595 551.409 36.8661C551.3 36.6727 551.246 36.4621 551.246 36.2342C551.246 36.0011 551.292 35.8024 551.385 35.6381C551.48 35.4712 551.609 35.3348 551.77 35.2288C551.935 35.1228 552.124 35.042 552.339 34.9864C552.556 34.9334 552.796 34.887 553.058 34.8473C553.323 34.8049 553.581 34.7691 553.833 34.74C554.087 34.7082 554.31 34.6777 554.501 34.6486L554.294 34.7757C554.302 34.3518 554.22 34.0379 554.048 33.8339C553.875 33.6299 553.576 33.5279 553.149 33.5279C552.855 33.5279 552.606 33.5941 552.402 33.7266C552.201 33.859 552.059 34.0683 551.977 34.3545L551.409 34.1876C551.507 33.8034 551.704 33.5053 552.001 33.2934C552.298 33.0814 552.683 32.9755 553.157 32.9755C553.549 32.9755 553.882 33.0496 554.155 33.198C554.43 33.3437 554.625 33.5557 554.739 33.8339C554.792 33.9584 554.826 34.0975 554.842 34.2512C554.858 34.4048 554.866 34.5611 554.866 34.7201V37.3867H554.346V36.3097L554.497 36.3733C554.351 36.7416 554.124 37.0224 553.817 37.2158C553.51 37.4092 553.141 37.5059 552.712 37.5059ZM552.78 37.0012C553.053 37.0012 553.291 36.9522 553.495 36.8542C553.699 36.7562 553.863 36.6224 553.988 36.4528C554.112 36.2806 554.193 36.0872 554.23 35.8726C554.262 35.7348 554.279 35.5838 554.282 35.4195C554.285 35.2526 554.286 35.1281 554.286 35.046L554.509 35.1612C554.31 35.1877 554.094 35.2142 553.861 35.2407C553.63 35.2672 553.402 35.2977 553.177 35.3321C552.955 35.3665 552.753 35.4076 552.573 35.4553C552.451 35.4897 552.333 35.5388 552.219 35.6023C552.106 35.6633 552.011 35.7454 551.937 35.8487C551.866 35.9521 551.83 36.0806 551.83 36.2342C551.83 36.3588 551.86 36.4793 551.921 36.5959C551.985 36.7124 552.086 36.8091 552.223 36.886C552.364 36.9628 552.549 37.0012 552.78 37.0012ZM558.238 37.3867C557.996 37.4371 557.758 37.4569 557.522 37.4463C557.289 37.4357 557.08 37.3854 556.894 37.2953C556.711 37.2052 556.572 37.0648 556.477 36.8741C556.4 36.7151 556.358 36.5548 556.35 36.3932C556.345 36.2289 556.342 36.0421 556.342 35.8328V31.9025H556.922V35.809C556.922 35.9892 556.923 36.1402 556.926 36.262C556.931 36.3813 556.959 36.4872 557.01 36.58C557.105 36.7575 557.256 36.8635 557.463 36.8979C557.672 36.9323 557.93 36.9244 558.238 36.8741V37.3867ZM555.424 33.5954V33.0947H558.238V33.5954H555.424ZM560.744 37.5059C560.325 37.5059 559.962 37.4132 559.655 37.2278C559.35 37.0423 559.113 36.7813 558.944 36.4449C558.774 36.1084 558.689 35.7136 558.689 35.2606C558.689 34.7916 558.773 34.3863 558.94 34.0445C559.107 33.7027 559.341 33.4391 559.643 33.2537C559.948 33.0682 560.307 32.9755 560.72 32.9755C561.144 32.9755 561.506 33.0735 561.805 33.2695C562.105 33.463 562.331 33.7411 562.485 34.1041C562.638 34.4671 562.709 34.9003 562.695 35.4036H562.099V35.197C562.089 34.6406 561.968 34.2207 561.738 33.9372C561.51 33.6537 561.176 33.512 560.736 33.512C560.275 33.512 559.921 33.6617 559.675 33.961C559.431 34.2604 559.309 34.687 559.309 35.2407C559.309 35.7812 559.431 36.2011 559.675 36.5005C559.921 36.7972 560.27 36.9456 560.72 36.9456C561.028 36.9456 561.295 36.8754 561.523 36.735C561.753 36.5919 561.935 36.3866 562.067 36.119L562.612 36.3296C562.442 36.7032 562.192 36.9933 561.861 37.1999C561.532 37.4039 561.16 37.5059 560.744 37.5059ZM559.103 35.4036V34.9148H562.381V35.4036H559.103Z" fill="black"/>
<circle cx="552.4" cy="8.51587" r="6.81275" fill="#EF6D58" fill-opacity="0.5"/>
<path opacity="0.5" d="M94.6291 167.152V157.342H97.6539C97.7539 157.342 97.9287 157.344 98.1785 157.349C98.4283 157.353 98.6668 157.372 98.8939 157.403C99.6523 157.503 100.286 157.78 100.795 158.234C101.308 158.684 101.694 159.256 101.953 159.951C102.212 160.646 102.341 161.411 102.341 162.247C102.341 163.083 102.212 163.848 101.953 164.543C101.694 165.238 101.308 165.813 100.795 166.267C100.286 166.716 99.6523 166.991 98.8939 167.091C98.6668 167.118 98.4261 167.136 98.1717 167.146C97.9219 167.15 97.7493 167.152 97.6539 167.152H94.6291ZM95.8758 165.994H97.6539C97.8265 165.994 98.0196 165.99 98.233 165.981C98.4465 165.967 98.6327 165.946 98.7917 165.919C99.3276 165.819 99.7613 165.594 100.093 165.245C100.424 164.895 100.667 164.459 100.822 163.937C100.976 163.414 101.054 162.851 101.054 162.247C101.054 161.629 100.974 161.059 100.815 160.537C100.661 160.015 100.418 159.581 100.086 159.236C99.7545 158.891 99.3231 158.67 98.7917 158.575C98.6327 158.543 98.4442 158.523 98.2262 158.514C98.0082 158.505 97.8174 158.5 97.6539 158.5H95.8758V165.994ZM107.092 167.357C106.37 167.357 105.738 167.198 105.198 166.88C104.662 166.557 104.244 166.11 103.944 165.538C103.645 164.961 103.495 164.289 103.495 163.521C103.495 162.717 103.642 162.022 103.938 161.436C104.233 160.846 104.644 160.392 105.171 160.074C105.702 159.751 106.324 159.59 107.037 159.59C107.778 159.59 108.407 159.761 108.924 160.101C109.447 160.442 109.837 160.928 110.096 161.559C110.36 162.19 110.473 162.942 110.437 163.814H109.211V163.378C109.197 162.474 109.013 161.8 108.659 161.355C108.305 160.905 107.778 160.68 107.078 160.68C106.329 160.68 105.759 160.921 105.368 161.402C104.978 161.884 104.782 162.574 104.782 163.473C104.782 164.341 104.978 165.013 105.368 165.49C105.759 165.967 106.315 166.205 107.037 166.205C107.523 166.205 107.946 166.094 108.305 165.872C108.663 165.649 108.945 165.329 109.149 164.911L110.314 165.313C110.028 165.962 109.597 166.467 109.02 166.825C108.448 167.18 107.805 167.357 107.092 167.357ZM104.374 163.814V162.84H109.81V163.814H104.374ZM114.733 167.35C113.857 167.35 113.137 167.159 112.574 166.778C112.015 166.392 111.672 165.853 111.545 165.163L112.785 164.965C112.885 165.365 113.114 165.683 113.473 165.919C113.832 166.151 114.277 166.267 114.808 166.267C115.312 166.267 115.708 166.162 115.994 165.953C116.28 165.744 116.423 165.461 116.423 165.102C116.423 164.893 116.375 164.725 116.28 164.598C116.184 164.466 115.987 164.343 115.687 164.23C115.392 164.116 114.944 163.98 114.345 163.821C113.695 163.648 113.185 163.469 112.812 163.283C112.44 163.096 112.174 162.881 112.015 162.635C111.856 162.39 111.777 162.093 111.777 161.743C111.777 161.312 111.895 160.935 112.131 160.612C112.367 160.285 112.696 160.033 113.119 159.856C113.546 159.679 114.041 159.59 114.604 159.59C115.162 159.59 115.662 159.679 116.103 159.856C116.543 160.033 116.897 160.285 117.165 160.612C117.438 160.935 117.599 161.312 117.649 161.743L116.409 161.968C116.35 161.573 116.159 161.262 115.837 161.034C115.519 160.807 115.108 160.687 114.604 160.673C114.127 160.655 113.739 160.739 113.439 160.925C113.144 161.112 112.996 161.364 112.996 161.682C112.996 161.859 113.051 162.011 113.16 162.138C113.273 162.265 113.48 162.386 113.78 162.499C114.084 162.613 114.524 162.742 115.101 162.888C115.751 163.051 116.262 163.23 116.634 163.426C117.011 163.617 117.279 163.844 117.438 164.107C117.597 164.366 117.676 164.686 117.676 165.068C117.676 165.776 117.415 166.335 116.893 166.744C116.371 167.148 115.651 167.35 114.733 167.35ZM122.279 167.357C121.534 167.357 120.9 167.191 120.378 166.859C119.86 166.523 119.465 166.062 119.193 165.476C118.92 164.891 118.779 164.223 118.77 163.473C118.779 162.706 118.922 162.031 119.199 161.45C119.481 160.864 119.883 160.408 120.405 160.081C120.928 159.754 121.557 159.59 122.292 159.59C123.069 159.59 123.737 159.781 124.295 160.162C124.858 160.544 125.235 161.066 125.426 161.729L124.227 162.09C124.073 161.664 123.821 161.332 123.471 161.096C123.126 160.86 122.728 160.742 122.279 160.742C121.775 160.742 121.359 160.86 121.032 161.096C120.705 161.327 120.462 161.65 120.303 162.063C120.144 162.472 120.062 162.942 120.058 163.473C120.067 164.291 120.255 164.952 120.623 165.456C120.996 165.956 121.547 166.205 122.279 166.205C122.76 166.205 123.16 166.096 123.478 165.878C123.796 165.656 124.036 165.336 124.2 164.918L125.426 165.238C125.172 165.924 124.774 166.448 124.234 166.812C123.694 167.175 123.042 167.357 122.279 167.357ZM126.817 167.152V159.795H127.9V161.573L127.723 161.341C127.809 161.114 127.92 160.905 128.057 160.714C128.197 160.524 128.354 160.367 128.527 160.244C128.717 160.09 128.933 159.972 129.174 159.89C129.415 159.808 129.66 159.761 129.91 159.747C130.159 159.729 130.393 159.745 130.611 159.795V160.932C130.357 160.864 130.078 160.846 129.773 160.878C129.469 160.91 129.187 161.021 128.929 161.212C128.692 161.38 128.508 161.584 128.377 161.825C128.25 162.065 128.161 162.327 128.111 162.608C128.061 162.885 128.036 163.169 128.036 163.46V167.152H126.817ZM132.036 158.493V157.24H133.249V158.493H132.036ZM132.036 167.152V159.795H133.249V167.152H132.036ZM138.672 167.357C137.981 167.357 137.4 167.186 136.928 166.846C136.455 166.501 136.097 166.035 135.851 165.449C135.611 164.859 135.49 164.198 135.49 163.467C135.49 162.726 135.611 162.063 135.851 161.477C136.097 160.891 136.455 160.43 136.928 160.094C137.405 159.758 137.988 159.59 138.679 159.59C139.36 159.59 139.946 159.761 140.436 160.101C140.931 160.437 141.311 160.898 141.574 161.484C141.837 162.07 141.969 162.731 141.969 163.467C141.969 164.202 141.837 164.863 141.574 165.449C141.311 166.035 140.931 166.501 140.436 166.846C139.946 167.186 139.358 167.357 138.672 167.357ZM135.286 170.422V159.795H136.369V165.211H136.505V170.422H135.286ZM138.522 166.246C139.008 166.246 139.41 166.124 139.728 165.878C140.046 165.633 140.284 165.302 140.443 164.884C140.602 164.461 140.682 163.989 140.682 163.467C140.682 162.949 140.602 162.481 140.443 162.063C140.289 161.645 140.048 161.314 139.721 161.069C139.398 160.823 138.987 160.701 138.488 160.701C138.011 160.701 137.616 160.819 137.302 161.055C136.989 161.287 136.755 161.611 136.601 162.029C136.446 162.442 136.369 162.922 136.369 163.467C136.369 164.003 136.444 164.482 136.594 164.904C136.748 165.322 136.985 165.651 137.302 165.892C137.62 166.128 138.027 166.246 138.522 166.246ZM147.571 167.152C147.135 167.239 146.703 167.273 146.276 167.255C145.854 167.241 145.477 167.157 145.145 167.002C144.814 166.843 144.562 166.598 144.389 166.267C144.244 165.976 144.164 165.683 144.151 165.388C144.142 165.088 144.137 164.75 144.137 164.373V157.751H145.35V164.318C145.35 164.618 145.352 164.875 145.357 165.088C145.366 165.302 145.413 165.485 145.5 165.64C145.663 165.931 145.922 166.101 146.276 166.151C146.635 166.201 147.067 166.187 147.571 166.11V167.152ZM142.645 160.796V159.795H147.571V160.796H142.645ZM149.201 158.493V157.24H150.413V158.493H149.201ZM149.201 167.152V159.795H150.413V167.152H149.201ZM155.591 167.357C154.86 167.357 154.229 167.191 153.698 166.859C153.171 166.528 152.764 166.069 152.478 165.483C152.192 164.897 152.049 164.225 152.049 163.467C152.049 162.695 152.194 162.018 152.485 161.436C152.776 160.855 153.187 160.403 153.718 160.081C154.249 159.754 154.874 159.59 155.591 159.59C156.327 159.59 156.961 159.756 157.492 160.088C158.024 160.415 158.43 160.871 158.712 161.457C158.998 162.038 159.141 162.708 159.141 163.467C159.141 164.234 158.998 164.911 158.712 165.497C158.426 166.078 158.017 166.535 157.485 166.866C156.954 167.193 156.323 167.357 155.591 167.357ZM155.591 166.205C156.355 166.205 156.922 165.951 157.295 165.442C157.667 164.934 157.853 164.275 157.853 163.467C157.853 162.635 157.665 161.975 157.288 161.484C156.911 160.989 156.345 160.742 155.591 160.742C155.078 160.742 154.656 160.857 154.324 161.089C153.993 161.321 153.745 161.641 153.582 162.05C153.418 162.458 153.336 162.931 153.336 163.467C153.336 164.293 153.527 164.956 153.909 165.456C154.29 165.956 154.851 166.205 155.591 166.205ZM165.88 167.152V163.467C165.88 163.117 165.848 162.781 165.785 162.458C165.725 162.136 165.619 161.847 165.464 161.593C165.314 161.334 165.11 161.13 164.851 160.98C164.597 160.83 164.274 160.755 163.884 160.755C163.579 160.755 163.302 160.807 163.053 160.912C162.807 161.012 162.596 161.166 162.419 161.375C162.242 161.584 162.103 161.847 162.003 162.165C161.908 162.479 161.86 162.849 161.86 163.276L161.063 163.031C161.063 162.318 161.19 161.707 161.445 161.198C161.704 160.685 162.065 160.292 162.528 160.019C162.996 159.742 163.545 159.604 164.177 159.604C164.654 159.604 165.06 159.679 165.396 159.829C165.732 159.979 166.012 160.178 166.234 160.428C166.457 160.673 166.632 160.95 166.759 161.259C166.886 161.564 166.974 161.875 167.024 162.193C167.079 162.506 167.106 162.804 167.106 163.085V167.152H165.88ZM160.634 167.152V159.795H161.724V161.763H161.86V167.152H160.634Z" fill="black"/>
<path opacity="0.5" d="M94.2317 152.637V146.914H95.9684C96.0293 146.914 96.1326 146.915 96.2783 146.918C96.4267 146.921 96.5684 146.931 96.7036 146.95C97.1381 147.011 97.501 147.172 97.7925 147.435C98.0839 147.697 98.3025 148.031 98.4482 148.436C98.5939 148.841 98.6668 149.288 98.6668 149.775C98.6668 150.263 98.5939 150.709 98.4482 151.115C98.3025 151.52 98.0839 151.854 97.7925 152.116C97.501 152.378 97.1381 152.54 96.7036 152.601C96.5711 152.617 96.4293 152.627 96.2783 152.633C96.1273 152.635 96.024 152.637 95.9684 152.637H94.2317ZM94.8357 152.076H95.9684C96.077 152.076 96.1936 152.074 96.3181 152.068C96.4452 152.06 96.5539 152.047 96.6439 152.029C96.9778 151.97 97.2467 151.835 97.4507 151.623C97.6573 151.411 97.8084 151.146 97.9037 150.829C97.9991 150.508 98.0468 150.157 98.0468 149.775C98.0468 149.391 97.9991 149.039 97.9037 148.718C97.8084 148.398 97.6573 148.133 97.4507 147.923C97.244 147.714 96.9751 147.58 96.6439 147.522C96.5539 147.504 96.4439 147.492 96.3141 147.486C96.1869 147.478 96.0717 147.474 95.9684 147.474H94.8357V152.076ZM100.8 152.756C100.477 152.756 100.205 152.698 99.9852 152.581C99.7679 152.465 99.605 152.31 99.4964 152.116C99.3877 151.923 99.3334 151.712 99.3334 151.484C99.3334 151.251 99.3798 151.052 99.4725 150.888C99.5679 150.721 99.6964 150.585 99.858 150.479C100.022 150.373 100.212 150.292 100.426 150.236C100.644 150.183 100.883 150.137 101.146 150.097C101.411 150.055 101.669 150.019 101.921 149.99C102.175 149.958 102.397 149.928 102.588 149.899L102.382 150.026C102.39 149.602 102.307 149.288 102.135 149.084C101.963 148.88 101.664 148.778 101.237 148.778C100.943 148.778 100.694 148.844 100.49 148.977C100.289 149.109 100.147 149.318 100.065 149.604L99.4964 149.438C99.5944 149.053 99.7918 148.755 100.089 148.543C100.385 148.331 100.771 148.225 101.245 148.225C101.637 148.225 101.97 148.3 102.242 148.448C102.518 148.594 102.713 148.806 102.827 149.084C102.88 149.208 102.914 149.347 102.93 149.501C102.946 149.655 102.954 149.811 102.954 149.97V152.637H102.433V151.56L102.584 151.623C102.439 151.992 102.212 152.272 101.905 152.466C101.597 152.659 101.229 152.756 100.8 152.756ZM100.867 152.251C101.14 152.251 101.379 152.202 101.583 152.104C101.787 152.006 101.951 151.872 102.076 151.703C102.2 151.531 102.281 151.337 102.318 151.123C102.35 150.985 102.367 150.834 102.37 150.67C102.372 150.503 102.374 150.378 102.374 150.296L102.596 150.411C102.397 150.438 102.182 150.464 101.948 150.491C101.718 150.517 101.49 150.548 101.265 150.582C101.042 150.617 100.841 150.658 100.661 150.705C100.539 150.74 100.421 150.789 100.307 150.852C100.193 150.913 100.099 150.995 100.025 151.099C99.9534 151.202 99.9176 151.331 99.9176 151.484C99.9176 151.609 99.9481 151.729 100.009 151.846C100.073 151.962 100.173 152.059 100.311 152.136C100.451 152.213 100.637 152.251 100.867 152.251ZM106.325 152.637C106.084 152.687 105.846 152.707 105.61 152.696C105.377 152.686 105.167 152.635 104.982 152.545C104.799 152.455 104.66 152.315 104.565 152.124C104.488 151.965 104.445 151.805 104.437 151.643C104.432 151.479 104.43 151.292 104.43 151.083V147.152H105.01V151.059C105.01 151.239 105.011 151.39 105.014 151.512C105.019 151.631 105.047 151.737 105.097 151.83C105.193 152.007 105.344 152.113 105.55 152.148C105.76 152.182 106.018 152.174 106.325 152.124V152.637ZM103.512 148.845V148.345H106.325V148.845H103.512ZM108.832 152.756C108.413 152.756 108.05 152.663 107.743 152.478C107.438 152.292 107.201 152.031 107.031 151.695C106.862 151.358 106.777 150.964 106.777 150.511C106.777 150.042 106.861 149.636 107.027 149.294C107.194 148.953 107.429 148.689 107.731 148.504C108.036 148.318 108.395 148.225 108.808 148.225C109.232 148.225 109.593 148.323 109.893 148.52C110.192 148.713 110.419 148.991 110.572 149.354C110.726 149.717 110.796 150.15 110.783 150.654H110.187V150.447C110.176 149.891 110.056 149.471 109.825 149.187C109.597 148.904 109.264 148.762 108.824 148.762C108.363 148.762 108.009 148.912 107.763 149.211C107.519 149.51 107.397 149.937 107.397 150.491C107.397 151.031 107.519 151.451 107.763 151.75C108.009 152.047 108.357 152.196 108.808 152.196C109.115 152.196 109.383 152.125 109.611 151.985C109.841 151.842 110.023 151.637 110.155 151.369L110.7 151.58C110.53 151.953 110.28 152.243 109.948 152.45C109.62 152.654 109.248 152.756 108.832 152.756ZM107.19 150.654V150.165H110.469V150.654H107.19Z" fill="black"/>
<circle cx="159.532" cy="186.781" r="6.81275" fill="#EF6D58" fill-opacity="0.5"/>
</svg>
