<svg viewBox="0 0 295 191" fill="none" xmlns="http://www.w3.org/2000/svg">
<path d="M7 184.836C24.8494 189.554 65.3623 189.64 84.6192 152.239C103.876 114.838 145.817 119.356 164.38 126.29C183.454 128.398 222.886 122.472 228.026 81.8969C233.167 41.3217 270.151 33.108 288 34.073" stroke="black" stroke-width="0.567729"/>
<circle cx="7" cy="184" r="5" fill="#EF6D58"/>
<circle cx="7" cy="184" r="6.71614" stroke="#FF4F33" stroke-width="0.567729"/>
<path d="M0.7 165V157.8H2.92C2.99333 157.8 3.12167 157.802 3.305 157.805C3.48833 157.808 3.66333 157.822 3.83 157.845C4.38667 157.918 4.85167 158.122 5.225 158.455C5.60167 158.785 5.885 159.205 6.075 159.715C6.265 160.225 6.36 160.787 6.36 161.4C6.36 162.013 6.265 162.575 6.075 163.085C5.885 163.595 5.60167 164.017 5.225 164.35C4.85167 164.68 4.38667 164.882 3.83 164.955C3.66333 164.975 3.48667 164.988 3.3 164.995C3.11667 164.998 2.99 165 2.92 165H0.7ZM1.615 164.15H2.92C3.04667 164.15 3.18833 164.147 3.345 164.14C3.50167 164.13 3.63833 164.115 3.755 164.095C4.14833 164.022 4.46667 163.857 4.71 163.6C4.95333 163.343 5.13167 163.023 5.245 162.64C5.35833 162.257 5.415 161.843 5.415 161.4C5.415 160.947 5.35667 160.528 5.24 160.145C5.12667 159.762 4.94833 159.443 4.705 159.19C4.46167 158.937 4.145 158.775 3.755 158.705C3.63833 158.682 3.5 158.667 3.34 158.66C3.18 158.653 3.04 158.65 2.92 158.65H1.615V164.15ZM9.84664 165.15C9.31664 165.15 8.85331 165.033 8.45664 164.8C8.06331 164.563 7.75664 164.235 7.53664 163.815C7.31664 163.392 7.20664 162.898 7.20664 162.335C7.20664 161.745 7.31497 161.235 7.53164 160.805C7.74831 160.372 8.04997 160.038 8.43664 159.805C8.82664 159.568 9.28331 159.45 9.80664 159.45C10.35 159.45 10.8116 159.575 11.1916 159.825C11.575 160.075 11.8616 160.432 12.0516 160.895C12.245 161.358 12.3283 161.91 12.3016 162.55H11.4016V162.23C11.3916 161.567 11.2566 161.072 10.9966 160.745C10.7366 160.415 10.35 160.25 9.83664 160.25C9.28664 160.25 8.86831 160.427 8.58164 160.78C8.29497 161.133 8.15164 161.64 8.15164 162.3C8.15164 162.937 8.29497 163.43 8.58164 163.78C8.86831 164.13 9.27664 164.305 9.80664 164.305C10.1633 164.305 10.4733 164.223 10.7366 164.06C11 163.897 11.2066 163.662 11.3566 163.355L12.2116 163.65C12.0016 164.127 11.685 164.497 11.2616 164.76C10.8416 165.02 10.37 165.15 9.84664 165.15ZM7.85164 162.55V161.835H11.8416V162.55H7.85164ZM15.4548 165.145C14.8115 165.145 14.2832 165.005 13.8698 164.725C13.4598 164.442 13.2082 164.047 13.1148 163.54L14.0248 163.395C14.0982 163.688 14.2665 163.922 14.5298 164.095C14.7932 164.265 15.1198 164.35 15.5098 164.35C15.8798 164.35 16.1698 164.273 16.3798 164.12C16.5898 163.967 16.6948 163.758 16.6948 163.495C16.6948 163.342 16.6598 163.218 16.5898 163.125C16.5198 163.028 16.3748 162.938 16.1548 162.855C15.9382 162.772 15.6098 162.672 15.1698 162.555C14.6932 162.428 14.3182 162.297 14.0448 162.16C13.7715 162.023 13.5765 161.865 13.4598 161.685C13.3432 161.505 13.2848 161.287 13.2848 161.03C13.2848 160.713 13.3715 160.437 13.5448 160.2C13.7182 159.96 13.9598 159.775 14.2698 159.645C14.5832 159.515 14.9465 159.45 15.3598 159.45C15.7698 159.45 16.1365 159.515 16.4598 159.645C16.7832 159.775 17.0432 159.96 17.2398 160.2C17.4398 160.437 17.5582 160.713 17.5948 161.03L16.6848 161.195C16.6415 160.905 16.5015 160.677 16.2648 160.51C16.0315 160.343 15.7298 160.255 15.3598 160.245C15.0098 160.232 14.7248 160.293 14.5048 160.43C14.2882 160.567 14.1798 160.752 14.1798 160.985C14.1798 161.115 14.2198 161.227 14.2998 161.32C14.3832 161.413 14.5348 161.502 14.7548 161.585C14.9782 161.668 15.3015 161.763 15.7248 161.87C16.2015 161.99 16.5765 162.122 16.8498 162.265C17.1265 162.405 17.3232 162.572 17.4398 162.765C17.5565 162.955 17.6148 163.19 17.6148 163.47C17.6148 163.99 17.4232 164.4 17.0398 164.7C16.6565 164.997 16.1282 165.145 15.4548 165.145ZM20.9926 165.15C20.4459 165.15 19.9809 165.028 19.5976 164.785C19.2176 164.538 18.9276 164.2 18.7276 163.77C18.5276 163.34 18.4242 162.85 18.4176 162.3C18.4242 161.737 18.5292 161.242 18.7326 160.815C18.9392 160.385 19.2342 160.05 19.6176 159.81C20.0009 159.57 20.4626 159.45 21.0026 159.45C21.5726 159.45 22.0626 159.59 22.4726 159.87C22.8859 160.15 23.1626 160.533 23.3026 161.02L22.4226 161.285C22.3092 160.972 22.1242 160.728 21.8676 160.555C21.6142 160.382 21.3226 160.295 20.9926 160.295C20.6226 160.295 20.3176 160.382 20.0776 160.555C19.8376 160.725 19.6592 160.962 19.5426 161.265C19.4259 161.565 19.3659 161.91 19.3626 162.3C19.3692 162.9 19.5076 163.385 19.7776 163.755C20.0509 164.122 20.4559 164.305 20.9926 164.305C21.3459 164.305 21.6392 164.225 21.8726 164.065C22.1059 163.902 22.2826 163.667 22.4026 163.36L23.3026 163.595C23.1159 164.098 22.8242 164.483 22.4276 164.75C22.0309 165.017 21.5526 165.15 20.9926 165.15ZM24.323 165V159.6H25.118V160.905L24.988 160.735C25.0514 160.568 25.133 160.415 25.233 160.275C25.3364 160.135 25.4514 160.02 25.578 159.93C25.718 159.817 25.8764 159.73 26.053 159.67C26.2297 159.61 26.4097 159.575 26.593 159.565C26.7764 159.552 26.948 159.563 27.108 159.6V160.435C26.9214 160.385 26.7164 160.372 26.493 160.395C26.2697 160.418 26.063 160.5 25.873 160.64C25.6997 160.763 25.5647 160.913 25.468 161.09C25.3747 161.267 25.3097 161.458 25.273 161.665C25.2364 161.868 25.218 162.077 25.218 162.29V165H24.323ZM28.1535 158.645V157.725H29.0435V158.645H28.1535ZM28.1535 165V159.6H29.0435V165H28.1535ZM33.0238 165.15C32.5171 165.15 32.0904 165.025 31.7438 164.775C31.3971 164.522 31.1338 164.18 30.9538 163.75C30.7771 163.317 30.6888 162.832 30.6888 162.295C30.6888 161.752 30.7771 161.265 30.9538 160.835C31.1338 160.405 31.3971 160.067 31.7438 159.82C32.0938 159.573 32.5221 159.45 33.0288 159.45C33.5288 159.45 33.9588 159.575 34.3188 159.825C34.6821 160.072 34.9604 160.41 35.1538 160.84C35.3471 161.27 35.4438 161.755 35.4438 162.295C35.4438 162.835 35.3471 163.32 35.1538 163.75C34.9604 164.18 34.6821 164.522 34.3188 164.775C33.9588 165.025 33.5271 165.15 33.0238 165.15ZM30.5388 167.4V159.6H31.3338V163.575H31.4338V167.4H30.5388ZM32.9138 164.335C33.2704 164.335 33.5654 164.245 33.7988 164.065C34.0321 163.885 34.2071 163.642 34.3238 163.335C34.4404 163.025 34.4988 162.678 34.4988 162.295C34.4988 161.915 34.4404 161.572 34.3238 161.265C34.2104 160.958 34.0338 160.715 33.7938 160.535C33.5571 160.355 33.2554 160.265 32.8888 160.265C32.5388 160.265 32.2488 160.352 32.0188 160.525C31.7888 160.695 31.6171 160.933 31.5038 161.24C31.3904 161.543 31.3338 161.895 31.3338 162.295C31.3338 162.688 31.3888 163.04 31.4988 163.35C31.6121 163.657 31.7854 163.898 32.0188 164.075C32.2521 164.248 32.5504 164.335 32.9138 164.335ZM39.5548 165C39.2348 165.063 38.9182 165.088 38.6048 165.075C38.2948 165.065 38.0182 165.003 37.7748 164.89C37.5315 164.773 37.3465 164.593 37.2198 164.35C37.1132 164.137 37.0548 163.922 37.0448 163.705C37.0382 163.485 37.0348 163.237 37.0348 162.96V158.1H37.9248V162.92C37.9248 163.14 37.9265 163.328 37.9298 163.485C37.9365 163.642 37.9715 163.777 38.0348 163.89C38.1548 164.103 38.3448 164.228 38.6048 164.265C38.8682 164.302 39.1848 164.292 39.5548 164.235V165ZM35.9398 160.335V159.6H39.5548V160.335H35.9398ZM40.7512 158.645V157.725H41.6412V158.645H40.7512ZM40.7512 165V159.6H41.6412V165H40.7512ZM45.4414 165.15C44.9047 165.15 44.4414 165.028 44.0514 164.785C43.6647 164.542 43.3664 164.205 43.1564 163.775C42.9464 163.345 42.8414 162.852 42.8414 162.295C42.8414 161.728 42.9481 161.232 43.1614 160.805C43.3747 160.378 43.6764 160.047 44.0664 159.81C44.4564 159.57 44.9147 159.45 45.4414 159.45C45.9814 159.45 46.4464 159.572 46.8364 159.815C47.2264 160.055 47.5247 160.39 47.7314 160.82C47.9414 161.247 48.0464 161.738 48.0464 162.295C48.0464 162.858 47.9414 163.355 47.7314 163.785C47.5214 164.212 47.2214 164.547 46.8314 164.79C46.4414 165.03 45.9781 165.15 45.4414 165.15ZM45.4414 164.305C46.0014 164.305 46.4181 164.118 46.6914 163.745C46.9647 163.372 47.1014 162.888 47.1014 162.295C47.1014 161.685 46.9631 161.2 46.6864 160.84C46.4097 160.477 45.9947 160.295 45.4414 160.295C45.0647 160.295 44.7547 160.38 44.5114 160.55C44.2681 160.72 44.0864 160.955 43.9664 161.255C43.8464 161.555 43.7864 161.902 43.7864 162.295C43.7864 162.902 43.9264 163.388 44.2064 163.755C44.4864 164.122 44.8981 164.305 45.4414 164.305ZM52.9923 165V162.295C52.9923 162.038 52.9689 161.792 52.9223 161.555C52.8789 161.318 52.8006 161.107 52.6873 160.92C52.5773 160.73 52.4273 160.58 52.2373 160.47C52.0506 160.36 51.8139 160.305 51.5273 160.305C51.3039 160.305 51.1006 160.343 50.9173 160.42C50.7373 160.493 50.5823 160.607 50.4523 160.76C50.3223 160.913 50.2206 161.107 50.1473 161.34C50.0773 161.57 50.0423 161.842 50.0423 162.155L49.4573 161.975C49.4573 161.452 49.5506 161.003 49.7373 160.63C49.9273 160.253 50.1923 159.965 50.5323 159.765C50.8756 159.562 51.2789 159.46 51.7423 159.46C52.0923 159.46 52.3906 159.515 52.6373 159.625C52.8839 159.735 53.0889 159.882 53.2523 160.065C53.4156 160.245 53.5439 160.448 53.6373 160.675C53.7306 160.898 53.7956 161.127 53.8323 161.36C53.8723 161.59 53.8923 161.808 53.8923 162.015V165H52.9923ZM49.1423 165V159.6H49.9423V161.045H50.0423V165H49.1423Z" fill="black"/>
<path d="M0.556375 151V145.277H2.29306C2.35399 145.277 2.45732 145.279 2.60304 145.281C2.7514 145.284 2.89315 145.295 3.02827 145.313C3.46277 145.374 3.82574 145.536 4.11717 145.798C4.40861 146.06 4.62718 146.394 4.7729 146.799C4.91862 147.205 4.99147 147.651 4.99147 148.139C4.99147 148.626 4.91862 149.073 4.7729 149.478C4.62718 149.883 4.40861 150.217 4.11717 150.479C3.82574 150.742 3.46277 150.903 3.02827 150.964C2.8958 150.98 2.75405 150.991 2.60304 150.996C2.45202 150.999 2.3487 151 2.29306 151H0.556375ZM1.16044 150.44H2.29306C2.40168 150.44 2.51826 150.437 2.64278 150.432C2.76995 150.424 2.87858 150.411 2.96866 150.392C3.30248 150.334 3.57139 150.199 3.7754 149.987C3.98205 149.775 4.13307 149.51 4.22845 149.192C4.32383 148.871 4.37151 148.52 4.37151 148.139C4.37151 147.754 4.32383 147.402 4.22845 147.082C4.13307 146.761 3.98205 146.496 3.7754 146.287C3.56875 146.077 3.29983 145.944 2.96866 145.885C2.87858 145.867 2.76863 145.855 2.63881 145.85C2.51163 145.842 2.39638 145.838 2.29306 145.838H1.16044V150.44ZM7.12458 151.119C6.80135 151.119 6.52978 151.061 6.30988 150.944C6.09263 150.828 5.92969 150.673 5.82107 150.479C5.71244 150.286 5.65813 150.075 5.65813 149.848C5.65813 149.614 5.7045 149.416 5.79722 149.251C5.8926 149.084 6.0211 148.948 6.18271 148.842C6.34698 148.736 6.53641 148.655 6.75101 148.6C6.96826 148.547 7.20803 148.5 7.47032 148.461C7.73526 148.418 7.99358 148.382 8.24527 148.353C8.49962 148.321 8.72216 148.291 8.91292 148.262L8.70627 148.389C8.71422 147.965 8.63209 147.651 8.45987 147.447C8.28766 147.243 7.98828 147.141 7.56173 147.141C7.26764 147.141 7.0186 147.207 6.81459 147.34C6.61324 147.472 6.4715 147.682 6.38937 147.968L5.82107 147.801C5.9191 147.417 6.11648 147.119 6.41321 146.907C6.70994 146.695 7.09543 146.589 7.56967 146.589C7.96179 146.589 8.29429 146.663 8.56717 146.811C8.84271 146.957 9.03744 147.169 9.15137 147.447C9.20436 147.572 9.2388 147.711 9.25469 147.864C9.27059 148.018 9.27854 148.174 9.27854 148.333V151H8.75793V149.923L8.90895 149.987C8.76323 150.355 8.53671 150.636 8.22938 150.829C7.92205 151.023 7.55378 151.119 7.12458 151.119ZM7.19213 150.615C7.46502 150.615 7.70347 150.565 7.90747 150.467C8.11148 150.369 8.27574 150.236 8.40026 150.066C8.52478 149.894 8.60559 149.7 8.64268 149.486C8.67448 149.348 8.6917 149.197 8.69435 149.033C8.697 148.866 8.69832 148.741 8.69832 148.659L8.92087 148.775C8.72216 148.801 8.50624 148.827 8.27309 148.854C8.04259 148.88 7.81474 148.911 7.58955 148.945C7.367 148.98 7.16564 149.021 6.98548 149.069C6.86361 149.103 6.74571 149.152 6.63179 149.216C6.51786 149.277 6.42381 149.359 6.34962 149.462C6.27809 149.565 6.24232 149.694 6.24232 149.848C6.24232 149.972 6.27279 150.093 6.33373 150.209C6.39731 150.326 6.49799 150.422 6.63576 150.499C6.77618 150.576 6.96164 150.615 7.19213 150.615ZM12.6499 151C12.4088 151.05 12.1703 151.07 11.9345 151.06C11.7014 151.049 11.4921 150.999 11.3066 150.909C11.1238 150.819 10.9847 150.678 10.8894 150.487C10.8125 150.328 10.7701 150.168 10.7622 150.006C10.7569 149.842 10.7542 149.655 10.7542 149.446V145.516H11.3345V149.422C11.3345 149.602 11.3358 149.753 11.3384 149.875C11.3437 149.995 11.3715 150.101 11.4219 150.193C11.5173 150.371 11.6683 150.477 11.8749 150.511C12.0842 150.546 12.3426 150.538 12.6499 150.487V151ZM9.83622 147.209V146.708H12.6499V147.209H9.83622ZM15.1564 151.119C14.7378 151.119 14.3749 151.026 14.0675 150.841C13.7628 150.656 13.5257 150.395 13.3562 150.058C13.1866 149.722 13.1018 149.327 13.1018 148.874C13.1018 148.405 13.1853 148 13.3522 147.658C13.5191 147.316 13.7536 147.052 14.0556 146.867C14.3603 146.681 14.7193 146.589 15.1326 146.589C15.5565 146.589 15.9181 146.687 16.2175 146.883C16.5169 147.076 16.7434 147.354 16.8971 147.717C17.0507 148.08 17.121 148.514 17.1077 149.017H16.5116V148.81C16.501 148.254 16.3804 147.834 16.15 147.55C15.9221 147.267 15.5883 147.125 15.1485 147.125C14.6875 147.125 14.3338 147.275 14.0874 147.574C13.8436 147.874 13.7218 148.3 13.7218 148.854C13.7218 149.394 13.8436 149.814 14.0874 150.114C14.3338 150.411 14.6822 150.559 15.1326 150.559C15.4399 150.559 15.7075 150.489 15.9353 150.348C16.1658 150.205 16.3473 150 16.4798 149.732L17.0243 149.943C16.8547 150.316 16.6043 150.607 16.2731 150.813C15.9446 151.017 15.5724 151.119 15.1564 151.119ZM13.5151 149.017V148.528H16.7938V149.017H13.5151Z" fill="black"/>
<circle cx="84" cy="157" r="6" fill="white"/>
<circle cx="169" cy="126" r="6" fill="white"/>
<circle cx="228" cy="80" r="6" fill="white"/>
<circle cx="289" cy="34" r="6" fill="white"/>
<path opacity="0.5" d="M79.7 188V180.8H81.92C81.9933 180.8 82.1217 180.802 82.305 180.805C82.4883 180.808 82.6633 180.822 82.83 180.845C83.3867 180.918 83.8517 181.122 84.225 181.455C84.6017 181.785 84.885 182.205 85.075 182.715C85.265 183.225 85.36 183.787 85.36 184.4C85.36 185.013 85.265 185.575 85.075 186.085C84.885 186.595 84.6017 187.017 84.225 187.35C83.8517 187.68 83.3867 187.882 82.83 187.955C82.6633 187.975 82.4867 187.988 82.3 187.995C82.1167 187.998 81.99 188 81.92 188H79.7ZM80.615 187.15H81.92C82.0467 187.15 82.1883 187.147 82.345 187.14C82.5017 187.13 82.6383 187.115 82.755 187.095C83.1483 187.022 83.4667 186.857 83.71 186.6C83.9533 186.343 84.1317 186.023 84.245 185.64C84.3583 185.257 84.415 184.843 84.415 184.4C84.415 183.947 84.3567 183.528 84.24 183.145C84.1267 182.762 83.9483 182.443 83.705 182.19C83.4617 181.937 83.145 181.775 82.755 181.705C82.6383 181.682 82.5 181.667 82.34 181.66C82.18 181.653 82.04 181.65 81.92 181.65H80.615V187.15ZM88.8466 188.15C88.3166 188.15 87.8533 188.033 87.4566 187.8C87.0633 187.563 86.7566 187.235 86.5366 186.815C86.3166 186.392 86.2066 185.898 86.2066 185.335C86.2066 184.745 86.315 184.235 86.5316 183.805C86.7483 183.372 87.05 183.038 87.4366 182.805C87.8266 182.568 88.2833 182.45 88.8066 182.45C89.35 182.45 89.8116 182.575 90.1916 182.825C90.575 183.075 90.8616 183.432 91.0516 183.895C91.245 184.358 91.3283 184.91 91.3016 185.55H90.4016V185.23C90.3916 184.567 90.2566 184.072 89.9966 183.745C89.7366 183.415 89.35 183.25 88.8366 183.25C88.2866 183.25 87.8683 183.427 87.5816 183.78C87.295 184.133 87.1516 184.64 87.1516 185.3C87.1516 185.937 87.295 186.43 87.5816 186.78C87.8683 187.13 88.2766 187.305 88.8066 187.305C89.1633 187.305 89.4733 187.223 89.7366 187.06C90 186.897 90.2066 186.662 90.3566 186.355L91.2116 186.65C91.0016 187.127 90.685 187.497 90.2616 187.76C89.8416 188.02 89.37 188.15 88.8466 188.15ZM86.8516 185.55V184.835H90.8416V185.55H86.8516ZM94.4548 188.145C93.8115 188.145 93.2832 188.005 92.8698 187.725C92.4598 187.442 92.2082 187.047 92.1148 186.54L93.0248 186.395C93.0982 186.688 93.2665 186.922 93.5298 187.095C93.7932 187.265 94.1198 187.35 94.5098 187.35C94.8798 187.35 95.1698 187.273 95.3798 187.12C95.5898 186.967 95.6948 186.758 95.6948 186.495C95.6948 186.342 95.6598 186.218 95.5898 186.125C95.5198 186.028 95.3748 185.938 95.1548 185.855C94.9382 185.772 94.6098 185.672 94.1698 185.555C93.6932 185.428 93.3182 185.297 93.0448 185.16C92.7715 185.023 92.5765 184.865 92.4598 184.685C92.3432 184.505 92.2848 184.287 92.2848 184.03C92.2848 183.713 92.3715 183.437 92.5448 183.2C92.7182 182.96 92.9598 182.775 93.2698 182.645C93.5832 182.515 93.9465 182.45 94.3598 182.45C94.7698 182.45 95.1365 182.515 95.4598 182.645C95.7832 182.775 96.0432 182.96 96.2398 183.2C96.4398 183.437 96.5582 183.713 96.5948 184.03L95.6848 184.195C95.6415 183.905 95.5015 183.677 95.2648 183.51C95.0315 183.343 94.7298 183.255 94.3598 183.245C94.0098 183.232 93.7248 183.293 93.5048 183.43C93.2882 183.567 93.1798 183.752 93.1798 183.985C93.1798 184.115 93.2198 184.227 93.2998 184.32C93.3832 184.413 93.5348 184.502 93.7548 184.585C93.9782 184.668 94.3015 184.763 94.7248 184.87C95.2015 184.99 95.5765 185.122 95.8498 185.265C96.1265 185.405 96.3232 185.572 96.4398 185.765C96.5565 185.955 96.6148 186.19 96.6148 186.47C96.6148 186.99 96.4232 187.4 96.0398 187.7C95.6565 187.997 95.1282 188.145 94.4548 188.145ZM99.9926 188.15C99.4459 188.15 98.9809 188.028 98.5976 187.785C98.2176 187.538 97.9276 187.2 97.7276 186.77C97.5276 186.34 97.4242 185.85 97.4176 185.3C97.4242 184.737 97.5292 184.242 97.7326 183.815C97.9392 183.385 98.2342 183.05 98.6176 182.81C99.0009 182.57 99.4626 182.45 100.003 182.45C100.573 182.45 101.063 182.59 101.473 182.87C101.886 183.15 102.163 183.533 102.303 184.02L101.423 184.285C101.309 183.972 101.124 183.728 100.868 183.555C100.614 183.382 100.323 183.295 99.9926 183.295C99.6226 183.295 99.3176 183.382 99.0776 183.555C98.8376 183.725 98.6592 183.962 98.5426 184.265C98.4259 184.565 98.3659 184.91 98.3626 185.3C98.3692 185.9 98.5076 186.385 98.7776 186.755C99.0509 187.122 99.4559 187.305 99.9926 187.305C100.346 187.305 100.639 187.225 100.873 187.065C101.106 186.902 101.283 186.667 101.403 186.36L102.303 186.595C102.116 187.098 101.824 187.483 101.428 187.75C101.031 188.017 100.553 188.15 99.9926 188.15ZM103.323 188V182.6H104.118V183.905L103.988 183.735C104.051 183.568 104.133 183.415 104.233 183.275C104.336 183.135 104.451 183.02 104.578 182.93C104.718 182.817 104.876 182.73 105.053 182.67C105.23 182.61 105.41 182.575 105.593 182.565C105.776 182.552 105.948 182.563 106.108 182.6V183.435C105.921 183.385 105.716 183.372 105.493 183.395C105.27 183.418 105.063 183.5 104.873 183.64C104.7 183.763 104.565 183.913 104.468 184.09C104.375 184.267 104.31 184.458 104.273 184.665C104.236 184.868 104.218 185.077 104.218 185.29V188H103.323ZM107.154 181.645V180.725H108.044V181.645H107.154ZM107.154 188V182.6H108.044V188H107.154ZM112.024 188.15C111.517 188.15 111.09 188.025 110.744 187.775C110.397 187.522 110.134 187.18 109.954 186.75C109.777 186.317 109.689 185.832 109.689 185.295C109.689 184.752 109.777 184.265 109.954 183.835C110.134 183.405 110.397 183.067 110.744 182.82C111.094 182.573 111.522 182.45 112.029 182.45C112.529 182.45 112.959 182.575 113.319 182.825C113.682 183.072 113.96 183.41 114.154 183.84C114.347 184.27 114.444 184.755 114.444 185.295C114.444 185.835 114.347 186.32 114.154 186.75C113.96 187.18 113.682 187.522 113.319 187.775C112.959 188.025 112.527 188.15 112.024 188.15ZM109.539 190.4V182.6H110.334V186.575H110.434V190.4H109.539ZM111.914 187.335C112.27 187.335 112.565 187.245 112.799 187.065C113.032 186.885 113.207 186.642 113.324 186.335C113.44 186.025 113.499 185.678 113.499 185.295C113.499 184.915 113.44 184.572 113.324 184.265C113.21 183.958 113.034 183.715 112.794 183.535C112.557 183.355 112.255 183.265 111.889 183.265C111.539 183.265 111.249 183.352 111.019 183.525C110.789 183.695 110.617 183.933 110.504 184.24C110.39 184.543 110.334 184.895 110.334 185.295C110.334 185.688 110.389 186.04 110.499 186.35C110.612 186.657 110.785 186.898 111.019 187.075C111.252 187.248 111.55 187.335 111.914 187.335ZM118.555 188C118.235 188.063 117.918 188.088 117.605 188.075C117.295 188.065 117.018 188.003 116.775 187.89C116.532 187.773 116.347 187.593 116.22 187.35C116.113 187.137 116.055 186.922 116.045 186.705C116.038 186.485 116.035 186.237 116.035 185.96V181.1H116.925V185.92C116.925 186.14 116.927 186.328 116.93 186.485C116.937 186.642 116.972 186.777 117.035 186.89C117.155 187.103 117.345 187.228 117.605 187.265C117.868 187.302 118.185 187.292 118.555 187.235V188ZM114.94 183.335V182.6H118.555V183.335H114.94ZM119.751 181.645V180.725H120.641V181.645H119.751ZM119.751 188V182.6H120.641V188H119.751ZM124.441 188.15C123.905 188.15 123.441 188.028 123.051 187.785C122.665 187.542 122.366 187.205 122.156 186.775C121.946 186.345 121.841 185.852 121.841 185.295C121.841 184.728 121.948 184.232 122.161 183.805C122.375 183.378 122.676 183.047 123.066 182.81C123.456 182.57 123.915 182.45 124.441 182.45C124.981 182.45 125.446 182.572 125.836 182.815C126.226 183.055 126.525 183.39 126.731 183.82C126.941 184.247 127.046 184.738 127.046 185.295C127.046 185.858 126.941 186.355 126.731 186.785C126.521 187.212 126.221 187.547 125.831 187.79C125.441 188.03 124.978 188.15 124.441 188.15ZM124.441 187.305C125.001 187.305 125.418 187.118 125.691 186.745C125.965 186.372 126.101 185.888 126.101 185.295C126.101 184.685 125.963 184.2 125.686 183.84C125.41 183.477 124.995 183.295 124.441 183.295C124.065 183.295 123.755 183.38 123.511 183.55C123.268 183.72 123.086 183.955 122.966 184.255C122.846 184.555 122.786 184.902 122.786 185.295C122.786 185.902 122.926 186.388 123.206 186.755C123.486 187.122 123.898 187.305 124.441 187.305ZM131.992 188V185.295C131.992 185.038 131.969 184.792 131.922 184.555C131.879 184.318 131.801 184.107 131.687 183.92C131.577 183.73 131.427 183.58 131.237 183.47C131.051 183.36 130.814 183.305 130.527 183.305C130.304 183.305 130.101 183.343 129.917 183.42C129.737 183.493 129.582 183.607 129.452 183.76C129.322 183.913 129.221 184.107 129.147 184.34C129.077 184.57 129.042 184.842 129.042 185.155L128.457 184.975C128.457 184.452 128.551 184.003 128.737 183.63C128.927 183.253 129.192 182.965 129.532 182.765C129.876 182.562 130.279 182.46 130.742 182.46C131.092 182.46 131.391 182.515 131.637 182.625C131.884 182.735 132.089 182.882 132.252 183.065C132.416 183.245 132.544 183.448 132.637 183.675C132.731 183.898 132.796 184.127 132.832 184.36C132.872 184.59 132.892 184.808 132.892 185.015V188H131.992ZM128.142 188V182.6H128.942V184.045H129.042V188H128.142Z" fill="black"/>
<path opacity="0.5" d="M119.7 111V103.8H121.92C121.993 103.8 122.122 103.802 122.305 103.805C122.488 103.808 122.663 103.822 122.83 103.845C123.387 103.918 123.852 104.122 124.225 104.455C124.602 104.785 124.885 105.205 125.075 105.715C125.265 106.225 125.36 106.787 125.36 107.4C125.36 108.013 125.265 108.575 125.075 109.085C124.885 109.595 124.602 110.017 124.225 110.35C123.852 110.68 123.387 110.882 122.83 110.955C122.663 110.975 122.487 110.988 122.3 110.995C122.117 110.998 121.99 111 121.92 111H119.7ZM120.615 110.15H121.92C122.047 110.15 122.188 110.147 122.345 110.14C122.502 110.13 122.638 110.115 122.755 110.095C123.148 110.022 123.467 109.857 123.71 109.6C123.953 109.343 124.132 109.023 124.245 108.64C124.358 108.257 124.415 107.843 124.415 107.4C124.415 106.947 124.357 106.528 124.24 106.145C124.127 105.762 123.948 105.443 123.705 105.19C123.462 104.937 123.145 104.775 122.755 104.705C122.638 104.682 122.5 104.667 122.34 104.66C122.18 104.653 122.04 104.65 121.92 104.65H120.615V110.15ZM128.847 111.15C128.317 111.15 127.853 111.033 127.457 110.8C127.063 110.563 126.757 110.235 126.537 109.815C126.317 109.392 126.207 108.898 126.207 108.335C126.207 107.745 126.315 107.235 126.532 106.805C126.748 106.372 127.05 106.038 127.437 105.805C127.827 105.568 128.283 105.45 128.807 105.45C129.35 105.45 129.812 105.575 130.192 105.825C130.575 106.075 130.862 106.432 131.052 106.895C131.245 107.358 131.328 107.91 131.302 108.55H130.402V108.23C130.392 107.567 130.257 107.072 129.997 106.745C129.737 106.415 129.35 106.25 128.837 106.25C128.287 106.25 127.868 106.427 127.582 106.78C127.295 107.133 127.152 107.64 127.152 108.3C127.152 108.937 127.295 109.43 127.582 109.78C127.868 110.13 128.277 110.305 128.807 110.305C129.163 110.305 129.473 110.223 129.737 110.06C130 109.897 130.207 109.662 130.357 109.355L131.212 109.65C131.002 110.127 130.685 110.497 130.262 110.76C129.842 111.02 129.37 111.15 128.847 111.15ZM126.852 108.55V107.835H130.842V108.55H126.852ZM134.455 111.145C133.812 111.145 133.283 111.005 132.87 110.725C132.46 110.442 132.208 110.047 132.115 109.54L133.025 109.395C133.098 109.688 133.267 109.922 133.53 110.095C133.793 110.265 134.12 110.35 134.51 110.35C134.88 110.35 135.17 110.273 135.38 110.12C135.59 109.967 135.695 109.758 135.695 109.495C135.695 109.342 135.66 109.218 135.59 109.125C135.52 109.028 135.375 108.938 135.155 108.855C134.938 108.772 134.61 108.672 134.17 108.555C133.693 108.428 133.318 108.297 133.045 108.16C132.772 108.023 132.577 107.865 132.46 107.685C132.343 107.505 132.285 107.287 132.285 107.03C132.285 106.713 132.372 106.437 132.545 106.2C132.718 105.96 132.96 105.775 133.27 105.645C133.583 105.515 133.947 105.45 134.36 105.45C134.77 105.45 135.137 105.515 135.46 105.645C135.783 105.775 136.043 105.96 136.24 106.2C136.44 106.437 136.558 106.713 136.595 107.03L135.685 107.195C135.642 106.905 135.502 106.677 135.265 106.51C135.032 106.343 134.73 106.255 134.36 106.245C134.01 106.232 133.725 106.293 133.505 106.43C133.288 106.567 133.18 106.752 133.18 106.985C133.18 107.115 133.22 107.227 133.3 107.32C133.383 107.413 133.535 107.502 133.755 107.585C133.978 107.668 134.302 107.763 134.725 107.87C135.202 107.99 135.577 108.122 135.85 108.265C136.127 108.405 136.323 108.572 136.44 108.765C136.557 108.955 136.615 109.19 136.615 109.47C136.615 109.99 136.423 110.4 136.04 110.7C135.657 110.997 135.128 111.145 134.455 111.145ZM139.993 111.15C139.446 111.15 138.981 111.028 138.598 110.785C138.218 110.538 137.928 110.2 137.728 109.77C137.528 109.34 137.424 108.85 137.418 108.3C137.424 107.737 137.529 107.242 137.733 106.815C137.939 106.385 138.234 106.05 138.618 105.81C139.001 105.57 139.463 105.45 140.003 105.45C140.573 105.45 141.063 105.59 141.473 105.87C141.886 106.15 142.163 106.533 142.303 107.02L141.423 107.285C141.309 106.972 141.124 106.728 140.868 106.555C140.614 106.382 140.323 106.295 139.993 106.295C139.623 106.295 139.318 106.382 139.078 106.555C138.838 106.725 138.659 106.962 138.543 107.265C138.426 107.565 138.366 107.91 138.363 108.3C138.369 108.9 138.508 109.385 138.778 109.755C139.051 110.122 139.456 110.305 139.993 110.305C140.346 110.305 140.639 110.225 140.873 110.065C141.106 109.902 141.283 109.667 141.403 109.36L142.303 109.595C142.116 110.098 141.824 110.483 141.428 110.75C141.031 111.017 140.553 111.15 139.993 111.15ZM143.323 111V105.6H144.118V106.905L143.988 106.735C144.051 106.568 144.133 106.415 144.233 106.275C144.336 106.135 144.451 106.02 144.578 105.93C144.718 105.817 144.876 105.73 145.053 105.67C145.23 105.61 145.41 105.575 145.593 105.565C145.776 105.552 145.948 105.563 146.108 105.6V106.435C145.921 106.385 145.716 106.372 145.493 106.395C145.27 106.418 145.063 106.5 144.873 106.64C144.7 106.763 144.565 106.913 144.468 107.09C144.375 107.267 144.31 107.458 144.273 107.665C144.236 107.868 144.218 108.077 144.218 108.29V111H143.323ZM147.154 104.645V103.725H148.044V104.645H147.154ZM147.154 111V105.6H148.044V111H147.154ZM152.024 111.15C151.517 111.15 151.09 111.025 150.744 110.775C150.397 110.522 150.134 110.18 149.954 109.75C149.777 109.317 149.689 108.832 149.689 108.295C149.689 107.752 149.777 107.265 149.954 106.835C150.134 106.405 150.397 106.067 150.744 105.82C151.094 105.573 151.522 105.45 152.029 105.45C152.529 105.45 152.959 105.575 153.319 105.825C153.682 106.072 153.96 106.41 154.154 106.84C154.347 107.27 154.444 107.755 154.444 108.295C154.444 108.835 154.347 109.32 154.154 109.75C153.96 110.18 153.682 110.522 153.319 110.775C152.959 111.025 152.527 111.15 152.024 111.15ZM149.539 113.4V105.6H150.334V109.575H150.434V113.4H149.539ZM151.914 110.335C152.27 110.335 152.565 110.245 152.799 110.065C153.032 109.885 153.207 109.642 153.324 109.335C153.44 109.025 153.499 108.678 153.499 108.295C153.499 107.915 153.44 107.572 153.324 107.265C153.21 106.958 153.034 106.715 152.794 106.535C152.557 106.355 152.255 106.265 151.889 106.265C151.539 106.265 151.249 106.352 151.019 106.525C150.789 106.695 150.617 106.933 150.504 107.24C150.39 107.543 150.334 107.895 150.334 108.295C150.334 108.688 150.389 109.04 150.499 109.35C150.612 109.657 150.785 109.898 151.019 110.075C151.252 110.248 151.55 110.335 151.914 110.335ZM158.555 111C158.235 111.063 157.918 111.088 157.605 111.075C157.295 111.065 157.018 111.003 156.775 110.89C156.532 110.773 156.347 110.593 156.22 110.35C156.113 110.137 156.055 109.922 156.045 109.705C156.038 109.485 156.035 109.237 156.035 108.96V104.1H156.925V108.92C156.925 109.14 156.927 109.328 156.93 109.485C156.937 109.642 156.972 109.777 157.035 109.89C157.155 110.103 157.345 110.228 157.605 110.265C157.868 110.302 158.185 110.292 158.555 110.235V111ZM154.94 106.335V105.6H158.555V106.335H154.94ZM159.751 104.645V103.725H160.641V104.645H159.751ZM159.751 111V105.6H160.641V111H159.751ZM164.441 111.15C163.905 111.15 163.441 111.028 163.051 110.785C162.665 110.542 162.366 110.205 162.156 109.775C161.946 109.345 161.841 108.852 161.841 108.295C161.841 107.728 161.948 107.232 162.161 106.805C162.375 106.378 162.676 106.047 163.066 105.81C163.456 105.57 163.915 105.45 164.441 105.45C164.981 105.45 165.446 105.572 165.836 105.815C166.226 106.055 166.525 106.39 166.731 106.82C166.941 107.247 167.046 107.738 167.046 108.295C167.046 108.858 166.941 109.355 166.731 109.785C166.521 110.212 166.221 110.547 165.831 110.79C165.441 111.03 164.978 111.15 164.441 111.15ZM164.441 110.305C165.001 110.305 165.418 110.118 165.691 109.745C165.965 109.372 166.101 108.888 166.101 108.295C166.101 107.685 165.963 107.2 165.686 106.84C165.41 106.477 164.995 106.295 164.441 106.295C164.065 106.295 163.755 106.38 163.511 106.55C163.268 106.72 163.086 106.955 162.966 107.255C162.846 107.555 162.786 107.902 162.786 108.295C162.786 108.902 162.926 109.388 163.206 109.755C163.486 110.122 163.898 110.305 164.441 110.305ZM171.992 111V108.295C171.992 108.038 171.969 107.792 171.922 107.555C171.879 107.318 171.801 107.107 171.687 106.92C171.577 106.73 171.427 106.58 171.237 106.47C171.051 106.36 170.814 106.305 170.527 106.305C170.304 106.305 170.101 106.343 169.917 106.42C169.737 106.493 169.582 106.607 169.452 106.76C169.322 106.913 169.221 107.107 169.147 107.34C169.077 107.57 169.042 107.842 169.042 108.155L168.457 107.975C168.457 107.452 168.551 107.003 168.737 106.63C168.927 106.253 169.192 105.965 169.532 105.765C169.876 105.562 170.279 105.46 170.742 105.46C171.092 105.46 171.391 105.515 171.637 105.625C171.884 105.735 172.089 105.882 172.252 106.065C172.416 106.245 172.544 106.448 172.637 106.675C172.731 106.898 172.796 107.127 172.832 107.36C172.872 107.59 172.892 107.808 172.892 108.015V111H171.992ZM168.142 111V105.6H168.942V107.045H169.042V111H168.142Z" fill="black"/>
<path opacity="0.5" d="M237.7 102V94.8H239.92C239.993 94.8 240.122 94.8017 240.305 94.805C240.488 94.8083 240.663 94.8217 240.83 94.845C241.387 94.9183 241.852 95.1217 242.225 95.455C242.602 95.785 242.885 96.205 243.075 96.715C243.265 97.225 243.36 97.7867 243.36 98.4C243.36 99.0133 243.265 99.575 243.075 100.085C242.885 100.595 242.602 101.017 242.225 101.35C241.852 101.68 241.387 101.882 240.83 101.955C240.663 101.975 240.487 101.988 240.3 101.995C240.117 101.998 239.99 102 239.92 102H237.7ZM238.615 101.15H239.92C240.047 101.15 240.188 101.147 240.345 101.14C240.502 101.13 240.638 101.115 240.755 101.095C241.148 101.022 241.467 100.857 241.71 100.6C241.953 100.343 242.132 100.023 242.245 99.64C242.358 99.2567 242.415 98.8433 242.415 98.4C242.415 97.9467 242.357 97.5283 242.24 97.145C242.127 96.7617 241.948 96.4433 241.705 96.19C241.462 95.9367 241.145 95.775 240.755 95.705C240.638 95.6817 240.5 95.6667 240.34 95.66C240.18 95.6533 240.04 95.65 239.92 95.65H238.615V101.15ZM246.847 102.15C246.317 102.15 245.853 102.033 245.457 101.8C245.063 101.563 244.757 101.235 244.537 100.815C244.317 100.392 244.207 99.8983 244.207 99.335C244.207 98.745 244.315 98.235 244.532 97.805C244.748 97.3717 245.05 97.0383 245.437 96.805C245.827 96.5683 246.283 96.45 246.807 96.45C247.35 96.45 247.812 96.575 248.192 96.825C248.575 97.075 248.862 97.4317 249.052 97.895C249.245 98.3583 249.328 98.91 249.302 99.55H248.402V99.23C248.392 98.5667 248.257 98.0717 247.997 97.745C247.737 97.415 247.35 97.25 246.837 97.25C246.287 97.25 245.868 97.4267 245.582 97.78C245.295 98.1333 245.152 98.64 245.152 99.3C245.152 99.9367 245.295 100.43 245.582 100.78C245.868 101.13 246.277 101.305 246.807 101.305C247.163 101.305 247.473 101.223 247.737 101.06C248 100.897 248.207 100.662 248.357 100.355L249.212 100.65C249.002 101.127 248.685 101.497 248.262 101.76C247.842 102.02 247.37 102.15 246.847 102.15ZM244.852 99.55V98.835H248.842V99.55H244.852ZM252.455 102.145C251.812 102.145 251.283 102.005 250.87 101.725C250.46 101.442 250.208 101.047 250.115 100.54L251.025 100.395C251.098 100.688 251.267 100.922 251.53 101.095C251.793 101.265 252.12 101.35 252.51 101.35C252.88 101.35 253.17 101.273 253.38 101.12C253.59 100.967 253.695 100.758 253.695 100.495C253.695 100.342 253.66 100.218 253.59 100.125C253.52 100.028 253.375 99.9383 253.155 99.855C252.938 99.7717 252.61 99.6717 252.17 99.555C251.693 99.4283 251.318 99.2967 251.045 99.16C250.772 99.0233 250.577 98.865 250.46 98.685C250.343 98.505 250.285 98.2867 250.285 98.03C250.285 97.7133 250.372 97.4367 250.545 97.2C250.718 96.96 250.96 96.775 251.27 96.645C251.583 96.515 251.947 96.45 252.36 96.45C252.77 96.45 253.137 96.515 253.46 96.645C253.783 96.775 254.043 96.96 254.24 97.2C254.44 97.4367 254.558 97.7133 254.595 98.03L253.685 98.195C253.642 97.905 253.502 97.6767 253.265 97.51C253.032 97.3433 252.73 97.255 252.36 97.245C252.01 97.2317 251.725 97.2933 251.505 97.43C251.288 97.5667 251.18 97.7517 251.18 97.985C251.18 98.115 251.22 98.2267 251.3 98.32C251.383 98.4133 251.535 98.5017 251.755 98.585C251.978 98.6683 252.302 98.7633 252.725 98.87C253.202 98.99 253.577 99.1217 253.85 99.265C254.127 99.405 254.323 99.5717 254.44 99.765C254.557 99.955 254.615 100.19 254.615 100.47C254.615 100.99 254.423 101.4 254.04 101.7C253.657 101.997 253.128 102.145 252.455 102.145ZM257.993 102.15C257.446 102.15 256.981 102.028 256.598 101.785C256.218 101.538 255.928 101.2 255.728 100.77C255.528 100.34 255.424 99.85 255.418 99.3C255.424 98.7367 255.529 98.2417 255.733 97.815C255.939 97.385 256.234 97.05 256.618 96.81C257.001 96.57 257.463 96.45 258.003 96.45C258.573 96.45 259.063 96.59 259.473 96.87C259.886 97.15 260.163 97.5333 260.303 98.02L259.423 98.285C259.309 97.9717 259.124 97.7283 258.868 97.555C258.614 97.3817 258.323 97.295 257.993 97.295C257.623 97.295 257.318 97.3817 257.078 97.555C256.838 97.725 256.659 97.9617 256.543 98.265C256.426 98.565 256.366 98.91 256.363 99.3C256.369 99.9 256.508 100.385 256.778 100.755C257.051 101.122 257.456 101.305 257.993 101.305C258.346 101.305 258.639 101.225 258.873 101.065C259.106 100.902 259.283 100.667 259.403 100.36L260.303 100.595C260.116 101.098 259.824 101.483 259.428 101.75C259.031 102.017 258.553 102.15 257.993 102.15ZM261.323 102V96.6H262.118V97.905L261.988 97.735C262.051 97.5683 262.133 97.415 262.233 97.275C262.336 97.135 262.451 97.02 262.578 96.93C262.718 96.8167 262.876 96.73 263.053 96.67C263.23 96.61 263.41 96.575 263.593 96.565C263.776 96.5517 263.948 96.5633 264.108 96.6V97.435C263.921 97.385 263.716 97.3717 263.493 97.395C263.27 97.4183 263.063 97.5 262.873 97.64C262.7 97.7633 262.565 97.9133 262.468 98.09C262.375 98.2667 262.31 98.4583 262.273 98.665C262.236 98.8683 262.218 99.0767 262.218 99.29V102H261.323ZM265.154 95.645V94.725H266.044V95.645H265.154ZM265.154 102V96.6H266.044V102H265.154ZM270.024 102.15C269.517 102.15 269.09 102.025 268.744 101.775C268.397 101.522 268.134 101.18 267.954 100.75C267.777 100.317 267.689 99.8317 267.689 99.295C267.689 98.7517 267.777 98.265 267.954 97.835C268.134 97.405 268.397 97.0667 268.744 96.82C269.094 96.5733 269.522 96.45 270.029 96.45C270.529 96.45 270.959 96.575 271.319 96.825C271.682 97.0717 271.96 97.41 272.154 97.84C272.347 98.27 272.444 98.755 272.444 99.295C272.444 99.835 272.347 100.32 272.154 100.75C271.96 101.18 271.682 101.522 271.319 101.775C270.959 102.025 270.527 102.15 270.024 102.15ZM267.539 104.4V96.6H268.334V100.575H268.434V104.4H267.539ZM269.914 101.335C270.27 101.335 270.565 101.245 270.799 101.065C271.032 100.885 271.207 100.642 271.324 100.335C271.44 100.025 271.499 99.6783 271.499 99.295C271.499 98.915 271.44 98.5717 271.324 98.265C271.21 97.9583 271.034 97.715 270.794 97.535C270.557 97.355 270.255 97.265 269.889 97.265C269.539 97.265 269.249 97.3517 269.019 97.525C268.789 97.695 268.617 97.9333 268.504 98.24C268.39 98.5433 268.334 98.895 268.334 99.295C268.334 99.6883 268.389 100.04 268.499 100.35C268.612 100.657 268.785 100.898 269.019 101.075C269.252 101.248 269.55 101.335 269.914 101.335ZM276.555 102C276.235 102.063 275.918 102.088 275.605 102.075C275.295 102.065 275.018 102.003 274.775 101.89C274.532 101.773 274.347 101.593 274.22 101.35C274.113 101.137 274.055 100.922 274.045 100.705C274.038 100.485 274.035 100.237 274.035 99.96V95.1H274.925V99.92C274.925 100.14 274.927 100.328 274.93 100.485C274.937 100.642 274.972 100.777 275.035 100.89C275.155 101.103 275.345 101.228 275.605 101.265C275.868 101.302 276.185 101.292 276.555 101.235V102ZM272.94 97.335V96.6H276.555V97.335H272.94ZM277.751 95.645V94.725H278.641V95.645H277.751ZM277.751 102V96.6H278.641V102H277.751ZM282.441 102.15C281.905 102.15 281.441 102.028 281.051 101.785C280.665 101.542 280.366 101.205 280.156 100.775C279.946 100.345 279.841 99.8517 279.841 99.295C279.841 98.7283 279.948 98.2317 280.161 97.805C280.375 97.3783 280.676 97.0467 281.066 96.81C281.456 96.57 281.915 96.45 282.441 96.45C282.981 96.45 283.446 96.5717 283.836 96.815C284.226 97.055 284.525 97.39 284.731 97.82C284.941 98.2467 285.046 98.7383 285.046 99.295C285.046 99.8583 284.941 100.355 284.731 100.785C284.521 101.212 284.221 101.547 283.831 101.79C283.441 102.03 282.978 102.15 282.441 102.15ZM282.441 101.305C283.001 101.305 283.418 101.118 283.691 100.745C283.965 100.372 284.101 99.8883 284.101 99.295C284.101 98.685 283.963 98.2 283.686 97.84C283.41 97.4767 282.995 97.295 282.441 97.295C282.065 97.295 281.755 97.38 281.511 97.55C281.268 97.72 281.086 97.955 280.966 98.255C280.846 98.555 280.786 98.9017 280.786 99.295C280.786 99.9017 280.926 100.388 281.206 100.755C281.486 101.122 281.898 101.305 282.441 101.305ZM289.992 102V99.295C289.992 99.0383 289.969 98.7917 289.922 98.555C289.879 98.3183 289.801 98.1067 289.687 97.92C289.577 97.73 289.427 97.58 289.237 97.47C289.051 97.36 288.814 97.305 288.527 97.305C288.304 97.305 288.101 97.3433 287.917 97.42C287.737 97.4933 287.582 97.6067 287.452 97.76C287.322 97.9133 287.221 98.1067 287.147 98.34C287.077 98.57 287.042 98.8417 287.042 99.155L286.457 98.975C286.457 98.4517 286.551 98.0033 286.737 97.63C286.927 97.2533 287.192 96.965 287.532 96.765C287.876 96.5617 288.279 96.46 288.742 96.46C289.092 96.46 289.391 96.515 289.637 96.625C289.884 96.735 290.089 96.8817 290.252 97.065C290.416 97.245 290.544 97.4483 290.637 97.675C290.731 97.8983 290.796 98.1267 290.832 98.36C290.872 98.59 290.892 98.8083 290.892 99.015V102H289.992ZM286.142 102V96.6H286.942V98.045H287.042V102H286.142Z" fill="black"/>
<path opacity="0.5" d="M239.7 22V14.8H241.92C241.993 14.8 242.122 14.8017 242.305 14.805C242.488 14.8083 242.663 14.8217 242.83 14.845C243.387 14.9183 243.852 15.1217 244.225 15.455C244.602 15.785 244.885 16.205 245.075 16.715C245.265 17.225 245.36 17.7867 245.36 18.4C245.36 19.0133 245.265 19.575 245.075 20.085C244.885 20.595 244.602 21.0167 244.225 21.35C243.852 21.68 243.387 21.8817 242.83 21.955C242.663 21.975 242.487 21.9883 242.3 21.995C242.117 21.9983 241.99 22 241.92 22H239.7ZM240.615 21.15H241.92C242.047 21.15 242.188 21.1467 242.345 21.14C242.502 21.13 242.638 21.115 242.755 21.095C243.148 21.0217 243.467 20.8567 243.71 20.6C243.953 20.3433 244.132 20.0233 244.245 19.64C244.358 19.2567 244.415 18.8433 244.415 18.4C244.415 17.9467 244.357 17.5283 244.24 17.145C244.127 16.7617 243.948 16.4433 243.705 16.19C243.462 15.9367 243.145 15.775 242.755 15.705C242.638 15.6817 242.5 15.6667 242.34 15.66C242.18 15.6533 242.04 15.65 241.92 15.65H240.615V21.15ZM248.847 22.15C248.317 22.15 247.853 22.0333 247.457 21.8C247.063 21.5633 246.757 21.235 246.537 20.815C246.317 20.3917 246.207 19.8983 246.207 19.335C246.207 18.745 246.315 18.235 246.532 17.805C246.748 17.3717 247.05 17.0383 247.437 16.805C247.827 16.5683 248.283 16.45 248.807 16.45C249.35 16.45 249.812 16.575 250.192 16.825C250.575 17.075 250.862 17.4317 251.052 17.895C251.245 18.3583 251.328 18.91 251.302 19.55H250.402V19.23C250.392 18.5667 250.257 18.0717 249.997 17.745C249.737 17.415 249.35 17.25 248.837 17.25C248.287 17.25 247.868 17.4267 247.582 17.78C247.295 18.1333 247.152 18.64 247.152 19.3C247.152 19.9367 247.295 20.43 247.582 20.78C247.868 21.13 248.277 21.305 248.807 21.305C249.163 21.305 249.473 21.2233 249.737 21.06C250 20.8967 250.207 20.6617 250.357 20.355L251.212 20.65C251.002 21.1267 250.685 21.4967 250.262 21.76C249.842 22.02 249.37 22.15 248.847 22.15ZM246.852 19.55V18.835H250.842V19.55H246.852ZM254.455 22.145C253.812 22.145 253.283 22.005 252.87 21.725C252.46 21.4417 252.208 21.0467 252.115 20.54L253.025 20.395C253.098 20.6883 253.267 20.9217 253.53 21.095C253.793 21.265 254.12 21.35 254.51 21.35C254.88 21.35 255.17 21.2733 255.38 21.12C255.59 20.9667 255.695 20.7583 255.695 20.495C255.695 20.3417 255.66 20.2183 255.59 20.125C255.52 20.0283 255.375 19.9383 255.155 19.855C254.938 19.7717 254.61 19.6717 254.17 19.555C253.693 19.4283 253.318 19.2967 253.045 19.16C252.772 19.0233 252.577 18.865 252.46 18.685C252.343 18.505 252.285 18.2867 252.285 18.03C252.285 17.7133 252.372 17.4367 252.545 17.2C252.718 16.96 252.96 16.775 253.27 16.645C253.583 16.515 253.947 16.45 254.36 16.45C254.77 16.45 255.137 16.515 255.46 16.645C255.783 16.775 256.043 16.96 256.24 17.2C256.44 17.4367 256.558 17.7133 256.595 18.03L255.685 18.195C255.642 17.905 255.502 17.6767 255.265 17.51C255.032 17.3433 254.73 17.255 254.36 17.245C254.01 17.2317 253.725 17.2933 253.505 17.43C253.288 17.5667 253.18 17.7517 253.18 17.985C253.18 18.115 253.22 18.2267 253.3 18.32C253.383 18.4133 253.535 18.5017 253.755 18.585C253.978 18.6683 254.302 18.7633 254.725 18.87C255.202 18.99 255.577 19.1217 255.85 19.265C256.127 19.405 256.323 19.5717 256.44 19.765C256.557 19.955 256.615 20.19 256.615 20.47C256.615 20.99 256.423 21.4 256.04 21.7C255.657 21.9967 255.128 22.145 254.455 22.145ZM259.993 22.15C259.446 22.15 258.981 22.0283 258.598 21.785C258.218 21.5383 257.928 21.2 257.728 20.77C257.528 20.34 257.424 19.85 257.418 19.3C257.424 18.7367 257.529 18.2417 257.733 17.815C257.939 17.385 258.234 17.05 258.618 16.81C259.001 16.57 259.463 16.45 260.003 16.45C260.573 16.45 261.063 16.59 261.473 16.87C261.886 17.15 262.163 17.5333 262.303 18.02L261.423 18.285C261.309 17.9717 261.124 17.7283 260.868 17.555C260.614 17.3817 260.323 17.295 259.993 17.295C259.623 17.295 259.318 17.3817 259.078 17.555C258.838 17.725 258.659 17.9617 258.543 18.265C258.426 18.565 258.366 18.91 258.363 19.3C258.369 19.9 258.508 20.385 258.778 20.755C259.051 21.1217 259.456 21.305 259.993 21.305C260.346 21.305 260.639 21.225 260.873 21.065C261.106 20.9017 261.283 20.6667 261.403 20.36L262.303 20.595C262.116 21.0983 261.824 21.4833 261.428 21.75C261.031 22.0167 260.553 22.15 259.993 22.15ZM263.323 22V16.6H264.118V17.905L263.988 17.735C264.051 17.5683 264.133 17.415 264.233 17.275C264.336 17.135 264.451 17.02 264.578 16.93C264.718 16.8167 264.876 16.73 265.053 16.67C265.23 16.61 265.41 16.575 265.593 16.565C265.776 16.5517 265.948 16.5633 266.108 16.6V17.435C265.921 17.385 265.716 17.3717 265.493 17.395C265.27 17.4183 265.063 17.5 264.873 17.64C264.7 17.7633 264.565 17.9133 264.468 18.09C264.375 18.2667 264.31 18.4583 264.273 18.665C264.236 18.8683 264.218 19.0767 264.218 19.29V22H263.323ZM267.154 15.645V14.725H268.044V15.645H267.154ZM267.154 22V16.6H268.044V22H267.154ZM272.024 22.15C271.517 22.15 271.09 22.025 270.744 21.775C270.397 21.5217 270.134 21.18 269.954 20.75C269.777 20.3167 269.689 19.8317 269.689 19.295C269.689 18.7517 269.777 18.265 269.954 17.835C270.134 17.405 270.397 17.0667 270.744 16.82C271.094 16.5733 271.522 16.45 272.029 16.45C272.529 16.45 272.959 16.575 273.319 16.825C273.682 17.0717 273.96 17.41 274.154 17.84C274.347 18.27 274.444 18.755 274.444 19.295C274.444 19.835 274.347 20.32 274.154 20.75C273.96 21.18 273.682 21.5217 273.319 21.775C272.959 22.025 272.527 22.15 272.024 22.15ZM269.539 24.4V16.6H270.334V20.575H270.434V24.4H269.539ZM271.914 21.335C272.27 21.335 272.565 21.245 272.799 21.065C273.032 20.885 273.207 20.6417 273.324 20.335C273.44 20.025 273.499 19.6783 273.499 19.295C273.499 18.915 273.44 18.5717 273.324 18.265C273.21 17.9583 273.034 17.715 272.794 17.535C272.557 17.355 272.255 17.265 271.889 17.265C271.539 17.265 271.249 17.3517 271.019 17.525C270.789 17.695 270.617 17.9333 270.504 18.24C270.39 18.5433 270.334 18.895 270.334 19.295C270.334 19.6883 270.389 20.04 270.499 20.35C270.612 20.6567 270.785 20.8983 271.019 21.075C271.252 21.2483 271.55 21.335 271.914 21.335ZM278.555 22C278.235 22.0633 277.918 22.0883 277.605 22.075C277.295 22.065 277.018 22.0033 276.775 21.89C276.532 21.7733 276.347 21.5933 276.22 21.35C276.113 21.1367 276.055 20.9217 276.045 20.705C276.038 20.485 276.035 20.2367 276.035 19.96V15.1H276.925V19.92C276.925 20.14 276.927 20.3283 276.93 20.485C276.937 20.6417 276.972 20.7767 277.035 20.89C277.155 21.1033 277.345 21.2283 277.605 21.265C277.868 21.3017 278.185 21.2917 278.555 21.235V22ZM274.94 17.335V16.6H278.555V17.335H274.94ZM279.751 15.645V14.725H280.641V15.645H279.751ZM279.751 22V16.6H280.641V22H279.751ZM284.441 22.15C283.905 22.15 283.441 22.0283 283.051 21.785C282.665 21.5417 282.366 21.205 282.156 20.775C281.946 20.345 281.841 19.8517 281.841 19.295C281.841 18.7283 281.948 18.2317 282.161 17.805C282.375 17.3783 282.676 17.0467 283.066 16.81C283.456 16.57 283.915 16.45 284.441 16.45C284.981 16.45 285.446 16.5717 285.836 16.815C286.226 17.055 286.525 17.39 286.731 17.82C286.941 18.2467 287.046 18.7383 287.046 19.295C287.046 19.8583 286.941 20.355 286.731 20.785C286.521 21.2117 286.221 21.5467 285.831 21.79C285.441 22.03 284.978 22.15 284.441 22.15ZM284.441 21.305C285.001 21.305 285.418 21.1183 285.691 20.745C285.965 20.3717 286.101 19.8883 286.101 19.295C286.101 18.685 285.963 18.2 285.686 17.84C285.41 17.4767 284.995 17.295 284.441 17.295C284.065 17.295 283.755 17.38 283.511 17.55C283.268 17.72 283.086 17.955 282.966 18.255C282.846 18.555 282.786 18.9017 282.786 19.295C282.786 19.9017 282.926 20.3883 283.206 20.755C283.486 21.1217 283.898 21.305 284.441 21.305ZM291.992 22V19.295C291.992 19.0383 291.969 18.7917 291.922 18.555C291.879 18.3183 291.801 18.1067 291.687 17.92C291.577 17.73 291.427 17.58 291.237 17.47C291.051 17.36 290.814 17.305 290.527 17.305C290.304 17.305 290.101 17.3433 289.917 17.42C289.737 17.4933 289.582 17.6067 289.452 17.76C289.322 17.9133 289.221 18.1067 289.147 18.34C289.077 18.57 289.042 18.8417 289.042 19.155L288.457 18.975C288.457 18.4517 288.551 18.0033 288.737 17.63C288.927 17.2533 289.192 16.965 289.532 16.765C289.876 16.5617 290.279 16.46 290.742 16.46C291.092 16.46 291.391 16.515 291.637 16.625C291.884 16.735 292.089 16.8817 292.252 17.065C292.416 17.245 292.544 17.4483 292.637 17.675C292.731 17.8983 292.796 18.1267 292.832 18.36C292.872 18.59 292.892 18.8083 292.892 19.015V22H291.992ZM288.142 22V16.6H288.942V18.045H289.042V22H288.142Z" fill="black"/>
<path opacity="0.5" d="M79.56 175V169.24H81.308C81.3693 169.24 81.4733 169.241 81.62 169.244C81.7693 169.247 81.912 169.257 82.048 169.276C82.4853 169.337 82.8507 169.5 83.144 169.764C83.4373 170.028 83.6573 170.364 83.804 170.772C83.9507 171.18 84.024 171.629 84.024 172.12C84.024 172.611 83.9507 173.06 83.804 173.468C83.6573 173.876 83.4373 174.212 83.144 174.476C82.8507 174.74 82.4853 174.903 82.048 174.964C81.9147 174.98 81.772 174.991 81.62 174.996C81.468 174.999 81.364 175 81.308 175H79.56ZM80.168 174.436H81.308C81.4173 174.436 81.5347 174.433 81.66 174.428C81.788 174.42 81.8973 174.407 81.988 174.388C82.324 174.329 82.5947 174.193 82.8 173.98C83.008 173.767 83.16 173.5 83.256 173.18C83.352 172.857 83.4 172.504 83.4 172.12C83.4 171.733 83.352 171.379 83.256 171.056C83.16 170.733 83.008 170.467 82.8 170.256C82.592 170.045 82.3213 169.911 81.988 169.852C81.8973 169.833 81.7867 169.821 81.656 169.816C81.528 169.808 81.412 169.804 81.308 169.804H80.168V174.436ZM86.171 175.12C85.8457 175.12 85.5723 175.061 85.351 174.944C85.1323 174.827 84.9683 174.671 84.859 174.476C84.7497 174.281 84.695 174.069 84.695 173.84C84.695 173.605 84.7417 173.405 84.835 173.24C84.931 173.072 85.0603 172.935 85.223 172.828C85.3883 172.721 85.579 172.64 85.795 172.584C86.0137 172.531 86.255 172.484 86.519 172.444C86.7857 172.401 87.0457 172.365 87.299 172.336C87.555 172.304 87.779 172.273 87.971 172.244L87.763 172.372C87.771 171.945 87.6883 171.629 87.515 171.424C87.3417 171.219 87.0403 171.116 86.611 171.116C86.315 171.116 86.0643 171.183 85.859 171.316C85.6563 171.449 85.5137 171.66 85.431 171.948L84.859 171.78C84.9577 171.393 85.1563 171.093 85.455 170.88C85.7537 170.667 86.1417 170.56 86.619 170.56C87.0137 170.56 87.3483 170.635 87.623 170.784C87.9003 170.931 88.0963 171.144 88.211 171.424C88.2643 171.549 88.299 171.689 88.315 171.844C88.331 171.999 88.339 172.156 88.339 172.316V175H87.815V173.916L87.967 173.98C87.8203 174.351 87.5923 174.633 87.283 174.828C86.9737 175.023 86.603 175.12 86.171 175.12ZM86.239 174.612C86.5137 174.612 86.7537 174.563 86.959 174.464C87.1643 174.365 87.3297 174.231 87.455 174.06C87.5803 173.887 87.6617 173.692 87.699 173.476C87.731 173.337 87.7483 173.185 87.751 173.02C87.7537 172.852 87.755 172.727 87.755 172.644L87.979 172.76C87.779 172.787 87.5617 172.813 87.327 172.84C87.095 172.867 86.8657 172.897 86.639 172.932C86.415 172.967 86.2123 173.008 86.031 173.056C85.9083 173.091 85.7897 173.14 85.675 173.204C85.5603 173.265 85.4657 173.348 85.391 173.452C85.319 173.556 85.283 173.685 85.283 173.84C85.283 173.965 85.3137 174.087 85.375 174.204C85.439 174.321 85.5403 174.419 85.679 174.496C85.8203 174.573 86.007 174.612 86.239 174.612ZM91.7323 175C91.4896 175.051 91.2496 175.071 91.0123 175.06C90.7776 175.049 90.567 174.999 90.3803 174.908C90.1963 174.817 90.0563 174.676 89.9603 174.484C89.883 174.324 89.8403 174.163 89.8323 174C89.827 173.835 89.8243 173.647 89.8243 173.436V169.48H90.4083V173.412C90.4083 173.593 90.4096 173.745 90.4123 173.868C90.4176 173.988 90.4456 174.095 90.4963 174.188C90.5923 174.367 90.7443 174.473 90.9523 174.508C91.163 174.543 91.423 174.535 91.7323 174.484V175ZM88.9003 171.184V170.68H91.7323V171.184H88.9003ZM94.2552 175.12C93.8339 175.12 93.4685 175.027 93.1592 174.84C92.8525 174.653 92.6139 174.391 92.4432 174.052C92.2725 173.713 92.1872 173.316 92.1872 172.86C92.1872 172.388 92.2712 171.98 92.4392 171.636C92.6072 171.292 92.8432 171.027 93.1472 170.84C93.4539 170.653 93.8152 170.56 94.2312 170.56C94.6579 170.56 95.0219 170.659 95.3232 170.856C95.6245 171.051 95.8525 171.331 96.0072 171.696C96.1619 172.061 96.2325 172.497 96.2192 173.004H95.6192V172.796C95.6085 172.236 95.4872 171.813 95.2552 171.528C95.0259 171.243 94.6899 171.1 94.2472 171.1C93.7832 171.1 93.4272 171.251 93.1792 171.552C92.9339 171.853 92.8112 172.283 92.8112 172.84C92.8112 173.384 92.9339 173.807 93.1792 174.108C93.4272 174.407 93.7779 174.556 94.2312 174.556C94.5405 174.556 94.8099 174.485 95.0392 174.344C95.2712 174.2 95.4539 173.993 95.5872 173.724L96.1352 173.936C95.9645 174.312 95.7125 174.604 95.3792 174.812C95.0485 175.017 94.6739 175.12 94.2552 175.12ZM92.6032 173.004V172.512H95.9032V173.004H92.6032Z" fill="black"/>
<path opacity="0.5" d="M119.56 98V92.24H121.308C121.369 92.24 121.473 92.2413 121.62 92.244C121.769 92.2467 121.912 92.2573 122.048 92.276C122.485 92.3373 122.851 92.5 123.144 92.764C123.437 93.028 123.657 93.364 123.804 93.772C123.951 94.18 124.024 94.6293 124.024 95.12C124.024 95.6107 123.951 96.06 123.804 96.468C123.657 96.876 123.437 97.212 123.144 97.476C122.851 97.74 122.485 97.9027 122.048 97.964C121.915 97.98 121.772 97.9907 121.62 97.996C121.468 97.9987 121.364 98 121.308 98H119.56ZM120.168 97.436H121.308C121.417 97.436 121.535 97.4333 121.66 97.428C121.788 97.42 121.897 97.4067 121.988 97.388C122.324 97.3293 122.595 97.1933 122.8 96.98C123.008 96.7667 123.16 96.5 123.256 96.18C123.352 95.8573 123.4 95.504 123.4 95.12C123.4 94.7333 123.352 94.3787 123.256 94.056C123.16 93.7333 123.008 93.4667 122.8 93.256C122.592 93.0453 122.321 92.9107 121.988 92.852C121.897 92.8333 121.787 92.8213 121.656 92.816C121.528 92.808 121.412 92.804 121.308 92.804H120.168V97.436ZM126.171 98.12C125.846 98.12 125.572 98.0613 125.351 97.944C125.132 97.8267 124.968 97.6707 124.859 97.476C124.75 97.2813 124.695 97.0693 124.695 96.84C124.695 96.6053 124.742 96.4053 124.835 96.24C124.931 96.072 125.06 95.9347 125.223 95.828C125.388 95.7213 125.579 95.64 125.795 95.584C126.014 95.5307 126.255 95.484 126.519 95.444C126.786 95.4013 127.046 95.3653 127.299 95.336C127.555 95.304 127.779 95.2733 127.971 95.244L127.763 95.372C127.771 94.9453 127.688 94.6293 127.515 94.424C127.342 94.2187 127.04 94.116 126.611 94.116C126.315 94.116 126.064 94.1827 125.859 94.316C125.656 94.4493 125.514 94.66 125.431 94.948L124.859 94.78C124.958 94.3933 125.156 94.0933 125.455 93.88C125.754 93.6667 126.142 93.56 126.619 93.56C127.014 93.56 127.348 93.6347 127.623 93.784C127.9 93.9307 128.096 94.144 128.211 94.424C128.264 94.5493 128.299 94.6893 128.315 94.844C128.331 94.9987 128.339 95.156 128.339 95.316V98H127.815V96.916L127.967 96.98C127.82 97.3507 127.592 97.6333 127.283 97.828C126.974 98.0227 126.603 98.12 126.171 98.12ZM126.239 97.612C126.514 97.612 126.754 97.5627 126.959 97.464C127.164 97.3653 127.33 97.2307 127.455 97.06C127.58 96.8867 127.662 96.692 127.699 96.476C127.731 96.3373 127.748 96.1853 127.751 96.02C127.754 95.852 127.755 95.7267 127.755 95.644L127.979 95.76C127.779 95.7867 127.562 95.8133 127.327 95.84C127.095 95.8667 126.866 95.8973 126.639 95.932C126.415 95.9667 126.212 96.008 126.031 96.056C125.908 96.0907 125.79 96.14 125.675 96.204C125.56 96.2653 125.466 96.348 125.391 96.452C125.319 96.556 125.283 96.6853 125.283 96.84C125.283 96.9653 125.314 97.0867 125.375 97.204C125.439 97.3213 125.54 97.4187 125.679 97.496C125.82 97.5733 126.007 97.612 126.239 97.612ZM131.732 98C131.49 98.0507 131.25 98.0707 131.012 98.06C130.778 98.0493 130.567 97.9987 130.38 97.908C130.196 97.8173 130.056 97.676 129.96 97.484C129.883 97.324 129.84 97.1627 129.832 97C129.827 96.8347 129.824 96.6467 129.824 96.436V92.48H130.408V96.412C130.408 96.5933 130.41 96.7453 130.412 96.868C130.418 96.988 130.446 97.0947 130.496 97.188C130.592 97.3667 130.744 97.4733 130.952 97.508C131.163 97.5427 131.423 97.5347 131.732 97.484V98ZM128.9 94.184V93.68H131.732V94.184H128.9ZM134.255 98.12C133.834 98.12 133.469 98.0267 133.159 97.84C132.853 97.6533 132.614 97.3907 132.443 97.052C132.273 96.7133 132.187 96.316 132.187 95.86C132.187 95.388 132.271 94.98 132.439 94.636C132.607 94.292 132.843 94.0267 133.147 93.84C133.454 93.6533 133.815 93.56 134.231 93.56C134.658 93.56 135.022 93.6587 135.323 93.856C135.625 94.0507 135.853 94.3307 136.007 94.696C136.162 95.0613 136.233 95.4973 136.219 96.004H135.619V95.796C135.609 95.236 135.487 94.8133 135.255 94.528C135.026 94.2427 134.69 94.1 134.247 94.1C133.783 94.1 133.427 94.2507 133.179 94.552C132.934 94.8533 132.811 95.2827 132.811 95.84C132.811 96.384 132.934 96.8067 133.179 97.108C133.427 97.4067 133.778 97.556 134.231 97.556C134.541 97.556 134.81 97.4853 135.039 97.344C135.271 97.2 135.454 96.9933 135.587 96.724L136.135 96.936C135.965 97.312 135.713 97.604 135.379 97.812C135.049 98.0173 134.674 98.12 134.255 98.12ZM132.603 96.004V95.512H135.903V96.004H132.603Z" fill="black"/>
<path opacity="0.5" d="M237.56 89V83.24H239.308C239.369 83.24 239.473 83.2413 239.62 83.244C239.769 83.2467 239.912 83.2573 240.048 83.276C240.485 83.3373 240.851 83.5 241.144 83.764C241.437 84.028 241.657 84.364 241.804 84.772C241.951 85.18 242.024 85.6293 242.024 86.12C242.024 86.6107 241.951 87.06 241.804 87.468C241.657 87.876 241.437 88.212 241.144 88.476C240.851 88.74 240.485 88.9027 240.048 88.964C239.915 88.98 239.772 88.9907 239.62 88.996C239.468 88.9987 239.364 89 239.308 89H237.56ZM238.168 88.436H239.308C239.417 88.436 239.535 88.4333 239.66 88.428C239.788 88.42 239.897 88.4067 239.988 88.388C240.324 88.3293 240.595 88.1933 240.8 87.98C241.008 87.7667 241.16 87.5 241.256 87.18C241.352 86.8573 241.4 86.504 241.4 86.12C241.4 85.7333 241.352 85.3787 241.256 85.056C241.16 84.7333 241.008 84.4667 240.8 84.256C240.592 84.0453 240.321 83.9107 239.988 83.852C239.897 83.8333 239.787 83.8213 239.656 83.816C239.528 83.808 239.412 83.804 239.308 83.804H238.168V88.436ZM244.171 89.12C243.846 89.12 243.572 89.0613 243.351 88.944C243.132 88.8267 242.968 88.6707 242.859 88.476C242.75 88.2813 242.695 88.0693 242.695 87.84C242.695 87.6053 242.742 87.4053 242.835 87.24C242.931 87.072 243.06 86.9347 243.223 86.828C243.388 86.7213 243.579 86.64 243.795 86.584C244.014 86.5307 244.255 86.484 244.519 86.444C244.786 86.4013 245.046 86.3653 245.299 86.336C245.555 86.304 245.779 86.2733 245.971 86.244L245.763 86.372C245.771 85.9453 245.688 85.6293 245.515 85.424C245.342 85.2187 245.04 85.116 244.611 85.116C244.315 85.116 244.064 85.1827 243.859 85.316C243.656 85.4493 243.514 85.66 243.431 85.948L242.859 85.78C242.958 85.3933 243.156 85.0933 243.455 84.88C243.754 84.6667 244.142 84.56 244.619 84.56C245.014 84.56 245.348 84.6347 245.623 84.784C245.9 84.9307 246.096 85.144 246.211 85.424C246.264 85.5493 246.299 85.6893 246.315 85.844C246.331 85.9987 246.339 86.156 246.339 86.316V89H245.815V87.916L245.967 87.98C245.82 88.3507 245.592 88.6333 245.283 88.828C244.974 89.0227 244.603 89.12 244.171 89.12ZM244.239 88.612C244.514 88.612 244.754 88.5627 244.959 88.464C245.164 88.3653 245.33 88.2307 245.455 88.06C245.58 87.8867 245.662 87.692 245.699 87.476C245.731 87.3373 245.748 87.1853 245.751 87.02C245.754 86.852 245.755 86.7267 245.755 86.644L245.979 86.76C245.779 86.7867 245.562 86.8133 245.327 86.84C245.095 86.8667 244.866 86.8973 244.639 86.932C244.415 86.9667 244.212 87.008 244.031 87.056C243.908 87.0907 243.79 87.14 243.675 87.204C243.56 87.2653 243.466 87.348 243.391 87.452C243.319 87.556 243.283 87.6853 243.283 87.84C243.283 87.9653 243.314 88.0867 243.375 88.204C243.439 88.3213 243.54 88.4187 243.679 88.496C243.82 88.5733 244.007 88.612 244.239 88.612ZM249.732 89C249.49 89.0507 249.25 89.0707 249.012 89.06C248.778 89.0493 248.567 88.9987 248.38 88.908C248.196 88.8173 248.056 88.676 247.96 88.484C247.883 88.324 247.84 88.1627 247.832 88C247.827 87.8347 247.824 87.6467 247.824 87.436V83.48H248.408V87.412C248.408 87.5933 248.41 87.7453 248.412 87.868C248.418 87.988 248.446 88.0947 248.496 88.188C248.592 88.3667 248.744 88.4733 248.952 88.508C249.163 88.5427 249.423 88.5347 249.732 88.484V89ZM246.9 85.184V84.68H249.732V85.184H246.9ZM252.255 89.12C251.834 89.12 251.469 89.0267 251.159 88.84C250.853 88.6533 250.614 88.3907 250.443 88.052C250.273 87.7133 250.187 87.316 250.187 86.86C250.187 86.388 250.271 85.98 250.439 85.636C250.607 85.292 250.843 85.0267 251.147 84.84C251.454 84.6533 251.815 84.56 252.231 84.56C252.658 84.56 253.022 84.6587 253.323 84.856C253.625 85.0507 253.853 85.3307 254.007 85.696C254.162 86.0613 254.233 86.4973 254.219 87.004H253.619V86.796C253.609 86.236 253.487 85.8133 253.255 85.528C253.026 85.2427 252.69 85.1 252.247 85.1C251.783 85.1 251.427 85.2507 251.179 85.552C250.934 85.8533 250.811 86.2827 250.811 86.84C250.811 87.384 250.934 87.8067 251.179 88.108C251.427 88.4067 251.778 88.556 252.231 88.556C252.541 88.556 252.81 88.4853 253.039 88.344C253.271 88.2 253.454 87.9933 253.587 87.724L254.135 87.936C253.965 88.312 253.713 88.604 253.379 88.812C253.049 89.0173 252.674 89.12 252.255 89.12ZM250.603 87.004V86.512H253.903V87.004H250.603Z" fill="black"/>
<path opacity="0.5" d="M239.56 9V3.24H241.308C241.369 3.24 241.473 3.24133 241.62 3.244C241.769 3.24667 241.912 3.25733 242.048 3.276C242.485 3.33733 242.851 3.5 243.144 3.764C243.437 4.028 243.657 4.364 243.804 4.772C243.951 5.18 244.024 5.62933 244.024 6.12C244.024 6.61067 243.951 7.06 243.804 7.468C243.657 7.876 243.437 8.212 243.144 8.476C242.851 8.74 242.485 8.90267 242.048 8.964C241.915 8.98 241.772 8.99067 241.62 8.996C241.468 8.99867 241.364 9 241.308 9H239.56ZM240.168 8.436H241.308C241.417 8.436 241.535 8.43333 241.66 8.428C241.788 8.42 241.897 8.40667 241.988 8.388C242.324 8.32933 242.595 8.19333 242.8 7.98C243.008 7.76667 243.16 7.5 243.256 7.18C243.352 6.85733 243.4 6.504 243.4 6.12C243.4 5.73333 243.352 5.37867 243.256 5.056C243.16 4.73333 243.008 4.46667 242.8 4.256C242.592 4.04533 242.321 3.91067 241.988 3.852C241.897 3.83333 241.787 3.82133 241.656 3.816C241.528 3.808 241.412 3.804 241.308 3.804H240.168V8.436ZM246.171 9.12C245.846 9.12 245.572 9.06133 245.351 8.944C245.132 8.82667 244.968 8.67067 244.859 8.476C244.75 8.28133 244.695 8.06933 244.695 7.84C244.695 7.60533 244.742 7.40533 244.835 7.24C244.931 7.072 245.06 6.93467 245.223 6.828C245.388 6.72133 245.579 6.64 245.795 6.584C246.014 6.53067 246.255 6.484 246.519 6.444C246.786 6.40133 247.046 6.36533 247.299 6.336C247.555 6.304 247.779 6.27333 247.971 6.244L247.763 6.372C247.771 5.94533 247.688 5.62933 247.515 5.424C247.342 5.21867 247.04 5.116 246.611 5.116C246.315 5.116 246.064 5.18267 245.859 5.316C245.656 5.44933 245.514 5.66 245.431 5.948L244.859 5.78C244.958 5.39333 245.156 5.09333 245.455 4.88C245.754 4.66667 246.142 4.56 246.619 4.56C247.014 4.56 247.348 4.63467 247.623 4.784C247.9 4.93067 248.096 5.144 248.211 5.424C248.264 5.54933 248.299 5.68933 248.315 5.844C248.331 5.99867 248.339 6.156 248.339 6.316V9H247.815V7.916L247.967 7.98C247.82 8.35067 247.592 8.63333 247.283 8.828C246.974 9.02267 246.603 9.12 246.171 9.12ZM246.239 8.612C246.514 8.612 246.754 8.56267 246.959 8.464C247.164 8.36533 247.33 8.23067 247.455 8.06C247.58 7.88667 247.662 7.692 247.699 7.476C247.731 7.33733 247.748 7.18533 247.751 7.02C247.754 6.852 247.755 6.72667 247.755 6.644L247.979 6.76C247.779 6.78667 247.562 6.81333 247.327 6.84C247.095 6.86667 246.866 6.89733 246.639 6.932C246.415 6.96667 246.212 7.008 246.031 7.056C245.908 7.09067 245.79 7.14 245.675 7.204C245.56 7.26533 245.466 7.348 245.391 7.452C245.319 7.556 245.283 7.68533 245.283 7.84C245.283 7.96533 245.314 8.08667 245.375 8.204C245.439 8.32133 245.54 8.41867 245.679 8.496C245.82 8.57333 246.007 8.612 246.239 8.612ZM251.732 9C251.49 9.05067 251.25 9.07067 251.012 9.06C250.778 9.04933 250.567 8.99867 250.38 8.908C250.196 8.81733 250.056 8.676 249.96 8.484C249.883 8.324 249.84 8.16267 249.832 8C249.827 7.83467 249.824 7.64667 249.824 7.436V3.48H250.408V7.412C250.408 7.59333 250.41 7.74533 250.412 7.868C250.418 7.988 250.446 8.09467 250.496 8.188C250.592 8.36667 250.744 8.47333 250.952 8.508C251.163 8.54267 251.423 8.53467 251.732 8.484V9ZM248.9 5.184V4.68H251.732V5.184H248.9ZM254.255 9.12C253.834 9.12 253.469 9.02667 253.159 8.84C252.853 8.65333 252.614 8.39067 252.443 8.052C252.273 7.71333 252.187 7.316 252.187 6.86C252.187 6.388 252.271 5.98 252.439 5.636C252.607 5.292 252.843 5.02667 253.147 4.84C253.454 4.65333 253.815 4.56 254.231 4.56C254.658 4.56 255.022 4.65867 255.323 4.856C255.625 5.05067 255.853 5.33067 256.007 5.696C256.162 6.06133 256.233 6.49733 256.219 7.004H255.619V6.796C255.609 6.236 255.487 5.81333 255.255 5.528C255.026 5.24267 254.69 5.1 254.247 5.1C253.783 5.1 253.427 5.25067 253.179 5.552C252.934 5.85333 252.811 6.28267 252.811 6.84C252.811 7.384 252.934 7.80667 253.179 8.108C253.427 8.40667 253.778 8.556 254.231 8.556C254.541 8.556 254.81 8.48533 255.039 8.344C255.271 8.2 255.454 7.99333 255.587 7.724L256.135 7.936C255.965 8.312 255.713 8.604 255.379 8.812C255.049 9.01733 254.674 9.12 254.255 9.12ZM252.603 7.004V6.512H255.903V7.004H252.603Z" fill="black"/>
<circle cx="84" cy="157" r="5" fill="#EF6D58" fill-opacity="0.5"/>
<circle cx="169" cy="126" r="5" fill="#EF6D58" fill-opacity="0.5"/>
<circle cx="228" cy="80" r="5" fill="#EF6D58" fill-opacity="0.5"/>
<circle cx="289" cy="34" r="5" fill="#EF6D58" fill-opacity="0.5"/>
</svg>
