<svg width="58" height="58" viewBox="0 0 58 58" fill="none" xmlns="http://www.w3.org/2000/svg">
<circle cx="29" cy="29" r="29" fill="white"/>
<path fill-rule="evenodd" clip-rule="evenodd" d="M29 4.87023C15.6735 4.87023 4.87023 15.6735 4.87023 29C4.87023 42.3265 15.6735 53.1298 29 53.1298C42.3265 53.1298 53.1298 42.3265 53.1298 29C53.1298 15.6735 42.3265 4.87023 29 4.87023ZM0 29C0 12.9837 12.9837 0 29 0C45.0163 0 58 12.9837 58 29C58 45.0163 45.0163 58 29 58C12.9837 58 0 45.0163 0 29ZM17.4151 20.1167C18.2838 19.3245 19.6261 18.5954 21.4733 18.5954C23.3204 18.5954 24.6627 19.3245 25.5314 20.1167C25.9501 20.4984 26.2469 20.8822 26.445 21.1819C26.5449 21.3329 26.6223 21.4667 26.6799 21.5739C26.7088 21.6277 26.7329 21.6753 26.7525 21.7156C26.7578 21.7264 26.7627 21.7366 26.7673 21.7463C26.7713 21.7549 26.7752 21.763 26.7788 21.7708L26.7895 21.7941L26.7943 21.8047L26.7965 21.8098L26.7976 21.8122C26.7976 21.8122 26.7987 21.8146 24.5725 22.8015L26.7987 21.8146C27.3437 23.0441 26.7889 24.4826 25.5594 25.0277C24.3585 25.5601 22.9581 25.0431 22.3857 23.8729C22.3847 23.8714 22.3836 23.8696 22.3823 23.8677C22.361 23.8354 22.3168 23.7764 22.2499 23.7154C22.1475 23.622 21.9402 23.4656 21.4733 23.4656C21.0063 23.4656 20.799 23.622 20.6966 23.7154C20.6298 23.7764 20.5856 23.8354 20.5642 23.8677C20.563 23.8696 20.5618 23.8714 20.5608 23.8729C19.9885 25.0431 18.5881 25.5601 17.3871 25.0277C16.1576 24.4826 15.6028 23.0441 16.1479 21.8146L18.374 22.8015C16.1479 21.8146 16.149 21.8122 16.149 21.8122L16.15 21.8098L16.1523 21.8047L16.1571 21.7941L16.1678 21.7708C16.1755 21.7542 16.1842 21.7358 16.194 21.7156C16.2137 21.6753 16.2378 21.6277 16.2666 21.5739C16.3242 21.4667 16.4017 21.3329 16.5016 21.1819C16.6997 20.8822 16.9964 20.4984 17.4151 20.1167ZM32.4686 20.1167C33.3373 19.3245 34.6796 18.5954 36.5267 18.5954C38.3739 18.5954 39.7162 19.3245 40.5849 20.1167C41.0036 20.4984 41.3003 20.8822 41.4984 21.1819C41.5983 21.3329 41.6758 21.4667 41.7334 21.5739C41.7622 21.6277 41.7863 21.6753 41.806 21.7156C41.8158 21.7358 41.8245 21.7542 41.8322 21.7708L41.8429 21.7941L41.8477 21.8047L41.85 21.8098L41.851 21.8122C41.851 21.8122 41.8521 21.8146 39.626 22.8015L41.8521 21.8146C42.3972 23.0441 41.8424 24.4826 40.6129 25.0277C39.4119 25.5601 38.0115 25.0431 37.4392 23.8729C37.4382 23.8714 37.437 23.8696 37.4358 23.8677C37.4144 23.8354 37.3702 23.7764 37.3034 23.7154C37.201 23.622 36.9937 23.4656 36.5267 23.4656C36.0598 23.4656 35.8525 23.622 35.7501 23.7154C35.6832 23.7764 35.639 23.8354 35.6176 23.8677C35.6164 23.8696 35.6153 23.8714 35.6143 23.8729C35.0419 25.0431 33.6415 25.5601 32.4406 25.0277C31.2111 24.4826 30.6563 23.0441 31.2013 21.8146L33.4275 22.8015C31.2013 21.8146 31.2024 21.8122 31.2024 21.8122L31.2035 21.8098L31.2057 21.8047L31.2105 21.7941L31.2212 21.7708C31.2289 21.7542 31.2376 21.7358 31.2475 21.7156C31.2671 21.6753 31.2912 21.6277 31.3201 21.5739C31.3777 21.4667 31.4551 21.3329 31.555 21.1819C31.7531 20.8822 32.0499 20.4984 32.4686 20.1167ZM38.3166 32.052C39.5653 32.5515 40.1726 33.9687 39.6732 35.2174C38.4263 38.3345 34.977 41.6183 29 41.6183C22.8527 41.6183 19.5735 37.7295 18.4098 35.402C17.8083 34.1991 18.2959 32.7364 19.4988 32.1349C20.7017 31.5335 22.1644 32.0211 22.7658 33.224C23.3731 34.4385 25.2297 36.7481 29 36.7481C32.9405 36.7481 34.6271 34.7189 35.1513 33.4086C35.6507 32.1599 37.0679 31.5526 38.3166 32.052Z" fill="#EF6D58"/>
</svg>
